<svg width="640" height="340" viewBox="0 0 640 340" fill="none" xmlns="http://www.w3.org/2000/svg">
<rect x="360" y="268" width="240" height="48" rx="16" fill="#2B2E37"/>
<rect x="360" y="268" width="240" height="48" rx="16" fill="#49D5DD" fill-opacity="0.16"/>
<circle cx="417.5" cy="292" r="14" fill="#49D5DD"/>
<circle cx="417.5" cy="292" r="12.1564" fill="#020613"/>
<path d="M429.657 292C429.657 298.714 424.214 304.156 417.5 304.156C410.786 304.156 405.344 298.714 405.344 292C405.344 285.286 410.786 279.844 417.5 279.844C424.214 279.844 429.657 285.286 429.657 292Z" fill="#49D5DD"/>
<g clip-path="url(#clip0_5116_16843)">
<path fill-rule="evenodd" clip-rule="evenodd" d="M412.271 286.385C412.013 285.058 413.044 283.833 414.383 283.833C415.568 283.833 416.547 284.803 416.547 285.977V288.631C416.857 288.631 417.166 288.58 417.475 288.58C417.784 288.58 418.042 288.58 418.351 288.631V285.977C418.351 284.803 419.33 283.833 420.515 283.833C421.854 283.833 422.885 285.058 422.679 286.385L422.112 289.499C424.122 290.367 425.667 291.898 425.667 293.786V294.96C425.667 296.543 424.637 297.87 423.143 298.737C421.648 299.656 419.69 300.167 417.475 300.167C415.259 300.167 413.301 299.656 411.807 298.737C410.364 297.87 409.334 296.543 409.334 294.96V293.786C409.334 291.898 410.828 290.367 412.838 289.499L412.271 286.385ZM421.339 289.907L422.009 286.232C422.164 285.313 421.494 284.446 420.515 284.446C419.69 284.446 419.021 285.109 419.021 285.926V289.295C418.815 289.244 418.557 289.244 418.351 289.244C418.042 289.244 417.784 289.193 417.475 289.193C417.166 289.193 416.857 289.193 416.547 289.244C416.341 289.244 416.084 289.295 415.878 289.295V285.977C415.878 285.16 415.208 284.497 414.383 284.497C413.456 284.497 412.735 285.365 412.941 286.283L413.611 289.958C411.446 290.775 410.004 292.204 410.004 293.837V295.011C410.004 297.512 413.353 299.554 417.475 299.554C421.597 299.554 424.946 297.512 424.946 295.011V293.837C424.997 292.153 423.555 290.724 421.339 289.907Z" fill="#633001"/>
<path d="M424.997 294.96C424.997 297.461 421.648 299.503 417.526 299.503C413.404 299.503 410.055 297.461 410.055 294.96V293.786H425.048V294.96H424.997Z" fill="#FEDC90"/>
<path fill-rule="evenodd" clip-rule="evenodd" d="M412.94 286.283C412.734 285.365 413.455 284.497 414.383 284.497C415.207 284.497 415.877 285.16 415.877 285.977V289.346C416.392 289.295 416.907 289.244 417.474 289.244C417.989 289.244 418.505 289.295 419.02 289.346V285.977C419.02 285.16 419.69 284.497 420.514 284.497C421.442 284.497 422.163 285.365 422.008 286.283L421.339 289.958C423.503 290.775 424.997 292.204 424.997 293.837C424.997 296.338 421.648 298.38 417.526 298.38C413.404 298.38 410.055 296.338 410.055 293.837C410.055 292.204 411.497 290.775 413.661 289.958L412.94 286.283Z" fill="#D1884F"/>
<path d="M415.414 293.48C415.414 294.144 415.054 294.705 414.59 294.705C414.126 294.705 413.766 294.144 413.766 293.48C413.766 292.817 414.126 292.255 414.59 292.255C415.054 292.255 415.414 292.817 415.414 293.48Z" fill="#633001"/>
<path d="M421.133 293.48C421.133 294.144 420.772 294.705 420.309 294.705C419.845 294.705 419.484 294.144 419.484 293.48C419.484 292.817 419.845 292.255 420.309 292.255C420.772 292.255 421.133 292.817 421.133 293.48Z" fill="#633001"/>
</g>
<path fill-rule="evenodd" clip-rule="evenodd" d="M417.5 303.695C423.959 303.695 429.196 298.459 429.196 292C429.196 285.541 423.959 280.304 417.5 280.304C411.041 280.304 405.805 285.541 405.805 292C405.805 298.459 411.041 303.695 417.5 303.695ZM417.5 304.156C424.214 304.156 429.657 298.714 429.657 292C429.657 285.286 424.214 279.844 417.5 279.844C410.786 279.844 405.344 285.286 405.344 292C405.344 298.714 410.786 304.156 417.5 304.156Z" fill="#37A9B0"/>
<path d="M442.652 298V285.4H446.99C447.668 285.4 448.28 285.568 448.826 285.904C449.378 286.24 449.816 286.693 450.14 287.263C450.47 287.833 450.635 288.463 450.635 289.153C450.635 289.855 450.467 290.491 450.131 291.061C449.801 291.625 449.36 292.075 448.808 292.411C448.256 292.747 447.65 292.915 446.99 292.915H444.524V298H442.652ZM444.524 291.043H446.801C447.161 291.043 447.488 290.953 447.782 290.773C448.082 290.593 448.319 290.353 448.493 290.053C448.673 289.753 448.763 289.414 448.763 289.036C448.763 288.658 448.673 288.319 448.493 288.019C448.319 287.713 448.082 287.473 447.782 287.299C447.488 287.119 447.161 287.029 446.801 287.029H444.524V291.043ZM458.672 289H460.544V298H458.663L458.591 296.695C458.327 297.157 457.97 297.529 457.52 297.811C457.07 298.093 456.539 298.234 455.927 298.234C455.267 298.234 454.646 298.111 454.064 297.865C453.482 297.613 452.969 297.265 452.525 296.821C452.087 296.377 451.745 295.867 451.499 295.291C451.253 294.709 451.13 294.085 451.13 293.419C451.13 292.777 451.25 292.174 451.49 291.61C451.73 291.04 452.063 290.542 452.489 290.116C452.915 289.69 453.407 289.357 453.965 289.117C454.529 288.871 455.132 288.748 455.774 288.748C456.428 288.748 457.004 288.898 457.502 289.198C458.006 289.492 458.423 289.87 458.753 290.332L458.672 289ZM455.882 296.425C456.41 296.425 456.872 296.296 457.268 296.038C457.664 295.774 457.97 295.42 458.186 294.976C458.408 294.532 458.519 294.04 458.519 293.5C458.519 292.954 458.408 292.459 458.186 292.015C457.964 291.571 457.655 291.22 457.259 290.962C456.869 290.698 456.41 290.566 455.882 290.566C455.36 290.566 454.883 290.698 454.451 290.962C454.019 291.226 453.677 291.58 453.425 292.024C453.173 292.468 453.047 292.96 453.047 293.5C453.047 294.046 453.176 294.541 453.434 294.985C453.698 295.423 454.043 295.774 454.469 296.038C454.901 296.296 455.372 296.425 455.882 296.425ZM470.44 292.357V298H468.568V292.816C468.568 292.414 468.469 292.048 468.271 291.718C468.079 291.388 467.818 291.127 467.488 290.935C467.164 290.737 466.798 290.638 466.39 290.638C465.994 290.638 465.631 290.737 465.301 290.935C464.971 291.127 464.707 291.388 464.509 291.718C464.311 292.048 464.212 292.414 464.212 292.816V298H462.34V289H464.212V289.954C464.524 289.582 464.908 289.288 465.364 289.072C465.82 288.856 466.312 288.748 466.84 288.748C467.506 288.748 468.112 288.91 468.658 289.234C469.204 289.558 469.636 289.993 469.954 290.539C470.278 291.085 470.44 291.691 470.44 292.357ZM477.937 295.444L479.611 296.353C479.203 296.923 478.684 297.379 478.054 297.721C477.43 298.063 476.752 298.234 476.02 298.234C475.192 298.234 474.436 298.021 473.752 297.595C473.074 297.169 472.531 296.599 472.123 295.885C471.721 295.165 471.52 294.37 471.52 293.5C471.52 292.84 471.637 292.225 471.871 291.655C472.105 291.079 472.426 290.575 472.834 290.143C473.248 289.705 473.728 289.363 474.274 289.117C474.82 288.871 475.402 288.748 476.02 288.748C476.752 288.748 477.43 288.919 478.054 289.261C478.684 289.603 479.203 290.062 479.611 290.638L477.937 291.547C477.685 291.247 477.391 291.019 477.055 290.863C476.719 290.701 476.374 290.62 476.02 290.62C475.528 290.62 475.081 290.755 474.679 291.025C474.283 291.289 473.968 291.64 473.734 292.078C473.506 292.51 473.392 292.984 473.392 293.5C473.392 294.01 473.509 294.484 473.743 294.922C473.977 295.354 474.292 295.702 474.688 295.966C475.09 296.23 475.534 296.362 476.02 296.362C476.392 296.362 476.746 296.278 477.082 296.11C477.418 295.942 477.703 295.72 477.937 295.444ZM488.01 289H489.882V298H488.001L487.929 296.695C487.665 297.157 487.308 297.529 486.858 297.811C486.408 298.093 485.877 298.234 485.265 298.234C484.605 298.234 483.984 298.111 483.402 297.865C482.82 297.613 482.307 297.265 481.863 296.821C481.425 296.377 481.083 295.867 480.837 295.291C480.591 294.709 480.468 294.085 480.468 293.419C480.468 292.777 480.588 292.174 480.828 291.61C481.068 291.04 481.401 290.542 481.827 290.116C482.253 289.69 482.745 289.357 483.303 289.117C483.867 288.871 484.47 288.748 485.112 288.748C485.766 288.748 486.342 288.898 486.84 289.198C487.344 289.492 487.761 289.87 488.091 290.332L488.01 289ZM485.22 296.425C485.748 296.425 486.21 296.296 486.606 296.038C487.002 295.774 487.308 295.42 487.524 294.976C487.746 294.532 487.857 294.04 487.857 293.5C487.857 292.954 487.746 292.459 487.524 292.015C487.302 291.571 486.993 291.22 486.597 290.962C486.207 290.698 485.748 290.566 485.22 290.566C484.698 290.566 484.221 290.698 483.789 290.962C483.357 291.226 483.015 291.58 482.763 292.024C482.511 292.468 482.385 292.96 482.385 293.5C482.385 294.046 482.514 294.541 482.772 294.985C483.036 295.423 483.381 295.774 483.807 296.038C484.239 296.296 484.71 296.425 485.22 296.425ZM499.443 298H497.283L495.069 294.184L493.62 295.912V298H491.748V284.5H493.62V293.005L496.968 289H499.416L496.347 292.663L499.443 298ZM504.321 298.234C503.493 298.234 502.737 298.021 502.053 297.595C501.375 297.169 500.832 296.599 500.424 295.885C500.022 295.165 499.821 294.37 499.821 293.5C499.821 292.84 499.938 292.225 500.172 291.655C500.406 291.079 500.727 290.575 501.135 290.143C501.549 289.705 502.029 289.363 502.575 289.117C503.121 288.871 503.703 288.748 504.321 288.748C505.011 288.748 505.644 288.892 506.22 289.18C506.796 289.462 507.288 289.855 507.696 290.359C508.104 290.857 508.404 291.433 508.596 292.087C508.788 292.735 508.845 293.425 508.767 294.157H501.828C501.906 294.571 502.056 294.946 502.278 295.282C502.506 295.612 502.794 295.873 503.142 296.065C503.496 296.257 503.889 296.356 504.321 296.362C504.777 296.362 505.191 296.248 505.563 296.02C505.941 295.792 506.25 295.477 506.49 295.075L508.389 295.516C508.029 296.314 507.486 296.968 506.76 297.478C506.034 297.982 505.221 298.234 504.321 298.234ZM501.765 292.726H506.877C506.817 292.294 506.664 291.904 506.418 291.556C506.178 291.202 505.875 290.923 505.509 290.719C505.149 290.509 504.753 290.404 504.321 290.404C503.895 290.404 503.499 290.506 503.133 290.71C502.773 290.914 502.473 291.193 502.233 291.547C501.999 291.895 501.843 292.288 501.765 292.726ZM514.907 298.234C514.217 298.234 513.554 298.126 512.918 297.91C512.282 297.694 511.727 297.385 511.253 296.983C510.779 296.575 510.44 296.092 510.236 295.534L511.991 294.877C512.093 295.165 512.288 295.423 512.576 295.651C512.87 295.873 513.218 296.047 513.62 296.173C514.028 296.299 514.457 296.362 514.907 296.362C515.387 296.362 515.837 296.284 516.257 296.128C516.683 295.972 517.025 295.756 517.283 295.48C517.547 295.204 517.679 294.88 517.679 294.508C517.679 294.124 517.541 293.809 517.265 293.563C516.995 293.317 516.647 293.122 516.221 292.978C515.801 292.834 515.363 292.726 514.907 292.654C514.025 292.51 513.233 292.3 512.531 292.024C511.835 291.748 511.283 291.361 510.875 290.863C510.473 290.365 510.272 289.717 510.272 288.919C510.272 288.169 510.485 287.515 510.911 286.957C511.343 286.399 511.91 285.967 512.612 285.661C513.32 285.349 514.085 285.193 514.907 285.193C515.585 285.193 516.239 285.301 516.869 285.517C517.505 285.727 518.063 286.036 518.543 286.444C519.029 286.846 519.377 287.335 519.587 287.911L517.814 288.55C517.712 288.256 517.517 288.001 517.229 287.785C516.941 287.563 516.593 287.389 516.185 287.263C515.783 287.137 515.357 287.074 514.907 287.074C514.427 287.068 513.977 287.146 513.557 287.308C513.143 287.464 512.804 287.68 512.54 287.956C512.276 288.232 512.144 288.553 512.144 288.919C512.144 289.369 512.267 289.711 512.513 289.945C512.759 290.179 513.089 290.353 513.503 290.467C513.923 290.575 514.391 290.674 514.907 290.764C515.735 290.896 516.5 291.115 517.202 291.421C517.91 291.727 518.477 292.135 518.903 292.645C519.335 293.149 519.551 293.77 519.551 294.508C519.551 295.252 519.335 295.906 518.903 296.47C518.477 297.028 517.91 297.463 517.202 297.775C516.5 298.081 515.735 298.234 514.907 298.234ZM525.617 298H523.754L520.739 289H522.575L524.699 295.318L526.805 289H528.695L530.801 295.318L532.916 289H534.752L531.746 298H529.865L527.741 291.637L525.617 298ZM542.801 289H544.673V298H542.792L542.72 296.695C542.456 297.157 542.099 297.529 541.649 297.811C541.199 298.093 540.668 298.234 540.056 298.234C539.396 298.234 538.775 298.111 538.193 297.865C537.611 297.613 537.098 297.265 536.654 296.821C536.216 296.377 535.874 295.867 535.628 295.291C535.382 294.709 535.259 294.085 535.259 293.419C535.259 292.777 535.379 292.174 535.619 291.61C535.859 291.04 536.192 290.542 536.618 290.116C537.044 289.69 537.536 289.357 538.094 289.117C538.658 288.871 539.261 288.748 539.903 288.748C540.557 288.748 541.133 288.898 541.631 289.198C542.135 289.492 542.552 289.87 542.882 290.332L542.801 289ZM540.011 296.425C540.539 296.425 541.001 296.296 541.397 296.038C541.793 295.774 542.099 295.42 542.315 294.976C542.537 294.532 542.648 294.04 542.648 293.5C542.648 292.954 542.537 292.459 542.315 292.015C542.093 291.571 541.784 291.22 541.388 290.962C540.998 290.698 540.539 290.566 540.011 290.566C539.489 290.566 539.012 290.698 538.58 290.962C538.148 291.226 537.806 291.58 537.554 292.024C537.302 292.468 537.176 292.96 537.176 293.5C537.176 294.046 537.305 294.541 537.563 294.985C537.827 295.423 538.172 295.774 538.598 296.038C539.03 296.296 539.501 296.425 540.011 296.425ZM548.341 302.5H546.469V289H548.341V290.323C548.641 289.861 549.025 289.486 549.493 289.198C549.961 288.91 550.513 288.766 551.149 288.766C551.803 288.766 552.415 288.889 552.985 289.135C553.561 289.381 554.065 289.723 554.497 290.161C554.929 290.593 555.268 291.094 555.514 291.664C555.76 292.234 555.883 292.846 555.883 293.5C555.883 294.154 555.76 294.769 555.514 295.345C555.268 295.921 554.929 296.428 554.497 296.866C554.065 297.298 553.561 297.637 552.985 297.883C552.415 298.129 551.803 298.252 551.149 298.252C550.513 298.252 549.961 298.108 549.493 297.82C549.025 297.526 548.641 297.151 548.341 296.695V302.5ZM551.131 290.575C550.609 290.575 550.15 290.707 549.754 290.971C549.358 291.235 549.049 291.589 548.827 292.033C548.605 292.471 548.494 292.96 548.494 293.5C548.494 294.04 548.605 294.532 548.827 294.976C549.049 295.42 549.358 295.774 549.754 296.038C550.15 296.302 550.609 296.434 551.131 296.434C551.647 296.434 552.121 296.305 552.553 296.047C552.985 295.783 553.33 295.429 553.588 294.985C553.846 294.541 553.975 294.046 553.975 293.5C553.975 292.966 553.846 292.477 553.588 292.033C553.336 291.589 552.994 291.235 552.562 290.971C552.13 290.707 551.653 290.575 551.131 290.575Z" fill="white"/>
<path d="M440.707 86.2929C440.317 85.9024 439.683 85.9024 439.293 86.2929L432.929 92.6569C432.538 93.0474 432.538 93.6805 432.929 94.0711C433.319 94.4616 433.953 94.4616 434.343 94.0711L440 88.4142L445.657 94.0711C446.047 94.4616 446.681 94.4616 447.071 94.0711C447.462 93.6805 447.462 93.0474 447.071 92.6569L440.707 86.2929ZM439 87L439 268L441 268L441 87L439 87Z" fill="#FB5B0D"/>
<path d="M519.293 256.707C519.683 257.098 520.317 257.098 520.707 256.707L527.071 250.343C527.462 249.953 527.462 249.319 527.071 248.929C526.681 248.538 526.047 248.538 525.657 248.929L520 254.586L514.343 248.929C513.953 248.538 513.319 248.538 512.929 248.929C512.538 249.319 512.538 249.953 512.929 250.343L519.293 256.707ZM521 256L521 75L519 75L519 256L521 256Z" fill="#5F636F"/>
<rect width="65.6147" height="20.5046" transform="translate(487 155)" fill="#1E212A"/>
<path d="M513.231 170.252V160.452H514.687V168.796H518.908V170.252H513.231ZM520.45 170.252V160.452H523.824C524.351 160.452 524.827 160.583 525.252 160.844C525.681 161.106 526.022 161.458 526.274 161.901C526.531 162.345 526.659 162.835 526.659 163.371C526.659 163.917 526.528 164.412 526.267 164.855C526.01 165.294 525.667 165.644 525.238 165.905C524.809 166.167 524.337 166.297 523.824 166.297H521.906V170.252H520.45ZM521.906 164.841H523.677C523.957 164.841 524.211 164.771 524.44 164.631C524.673 164.491 524.858 164.305 524.993 164.071C525.133 163.838 525.203 163.574 525.203 163.28C525.203 162.986 525.133 162.723 524.993 162.489C524.858 162.251 524.673 162.065 524.44 161.929C524.211 161.789 523.957 161.719 523.677 161.719H521.906V164.841Z" fill="white"/>
<rect x="360" y="23" width="240" height="52" rx="16" fill="#2B2E37"/>
<path d="M407.709 55V42.4H409.581V53.128H415.008V55H407.709ZM416.99 46H418.862V55H416.99V46ZM417.944 44.695C417.656 44.695 417.416 44.602 417.224 44.416C417.032 44.23 416.936 43.996 416.936 43.714C416.936 43.438 417.032 43.207 417.224 43.021C417.416 42.829 417.653 42.733 417.935 42.733C418.211 42.733 418.445 42.829 418.637 43.021C418.829 43.207 418.925 43.438 418.925 43.714C418.925 43.996 418.829 44.23 418.637 44.416C418.451 44.602 418.22 44.695 417.944 44.695ZM425.051 55.252C424.181 55.252 423.386 55.039 422.666 54.613C421.952 54.187 421.382 53.614 420.956 52.894C420.53 52.174 420.317 51.376 420.317 50.5C420.317 49.846 420.44 49.234 420.686 48.664C420.932 48.094 421.271 47.593 421.703 47.161C422.141 46.723 422.645 46.381 423.215 46.135C423.785 45.889 424.397 45.766 425.051 45.766C425.687 45.766 426.239 45.91 426.707 46.198C427.175 46.486 427.559 46.861 427.859 47.323V46H429.731V59.5H427.859V53.695C427.559 54.151 427.175 54.526 426.707 54.82C426.239 55.108 425.687 55.252 425.051 55.252ZM425.069 47.575C424.547 47.575 424.07 47.707 423.638 47.971C423.206 48.235 422.864 48.589 422.612 49.033C422.36 49.477 422.234 49.966 422.234 50.5C422.234 51.046 422.363 51.541 422.621 51.985C422.879 52.429 423.221 52.783 423.647 53.047C424.079 53.305 424.553 53.434 425.069 53.434C425.597 53.434 426.059 53.302 426.455 53.038C426.851 52.774 427.157 52.42 427.373 51.976C427.589 51.532 427.697 51.04 427.697 50.5C427.697 49.96 427.586 49.471 427.364 49.033C427.148 48.589 426.842 48.235 426.446 47.971C426.056 47.707 425.597 47.575 425.069 47.575ZM431.325 51.625V46H433.197V51.166C433.197 51.568 433.296 51.934 433.494 52.264C433.692 52.594 433.956 52.858 434.286 53.056C434.616 53.248 434.979 53.344 435.375 53.344C435.777 53.344 436.14 53.248 436.464 53.056C436.794 52.858 437.055 52.594 437.247 52.264C437.445 51.934 437.544 51.568 437.544 51.166V46H439.416L439.425 55H437.553L437.544 54.028C437.238 54.4 436.857 54.694 436.401 54.91C435.945 55.126 435.456 55.234 434.934 55.234C434.268 55.234 433.662 55.072 433.116 54.748C432.57 54.424 432.135 53.989 431.811 53.443C431.487 52.897 431.325 52.291 431.325 51.625ZM441.23 46H443.102V55H441.23V46ZM442.184 44.695C441.896 44.695 441.656 44.602 441.464 44.416C441.272 44.23 441.176 43.996 441.176 43.714C441.176 43.438 441.272 43.207 441.464 43.021C441.656 42.829 441.893 42.733 442.175 42.733C442.451 42.733 442.685 42.829 442.877 43.021C443.069 43.207 443.165 43.438 443.165 43.714C443.165 43.996 443.069 44.23 442.877 44.416C442.691 44.602 442.46 44.695 442.184 44.695ZM452.109 41.5H453.981V55H452.109V53.677C451.815 54.145 451.431 54.523 450.957 54.811C450.483 55.093 449.928 55.234 449.292 55.234C448.638 55.234 448.026 55.111 447.456 54.865C446.886 54.619 446.382 54.28 445.944 53.848C445.512 53.41 445.173 52.906 444.927 52.336C444.681 51.766 444.558 51.154 444.558 50.5C444.558 49.846 444.681 49.234 444.927 48.664C445.173 48.088 445.512 47.584 445.944 47.152C446.382 46.714 446.886 46.372 447.456 46.126C448.026 45.88 448.638 45.757 449.292 45.757C449.928 45.757 450.483 45.901 450.957 46.189C451.431 46.471 451.815 46.843 452.109 47.305V41.5ZM449.31 53.425C449.838 53.425 450.3 53.296 450.696 53.038C451.092 52.774 451.398 52.42 451.614 51.976C451.836 51.532 451.947 51.04 451.947 50.5C451.947 49.954 451.836 49.459 451.614 49.015C451.392 48.571 451.083 48.22 450.687 47.962C450.297 47.698 449.838 47.566 449.31 47.566C448.788 47.566 448.311 47.698 447.879 47.962C447.453 48.226 447.111 48.58 446.853 49.024C446.601 49.468 446.475 49.96 446.475 50.5C446.475 51.046 446.604 51.541 446.862 51.985C447.126 52.423 447.471 52.774 447.897 53.038C448.329 53.296 448.8 53.425 449.31 53.425ZM456.137 46H458.009V55H456.137V46ZM457.091 44.695C456.803 44.695 456.563 44.602 456.371 44.416C456.179 44.23 456.083 43.996 456.083 43.714C456.083 43.438 456.179 43.207 456.371 43.021C456.563 42.829 456.8 42.733 457.082 42.733C457.358 42.733 457.592 42.829 457.784 43.021C457.976 43.207 458.072 43.438 458.072 43.714C458.072 43.996 457.976 44.23 457.784 44.416C457.598 44.602 457.367 44.695 457.091 44.695ZM464.914 47.872H463.024L463.015 55H461.143L461.152 47.872H459.721V46H461.152L461.143 43.174H463.015L463.024 46H464.914V47.872ZM472.409 46H474.407L469.475 59.5H467.486L469.115 55L465.884 46H467.927L470.051 52.435L472.409 46ZM480.535 55L482.974 42.4H484.486L487.717 50.887L490.93 42.4H492.442L494.89 55H492.982L491.353 46.567L488.338 54.523H487.078L484.072 46.567L482.443 55H480.535ZM503.182 46H505.054V55H503.173L503.101 53.695C502.837 54.157 502.48 54.529 502.03 54.811C501.58 55.093 501.049 55.234 500.437 55.234C499.777 55.234 499.156 55.111 498.574 54.865C497.992 54.613 497.479 54.265 497.035 53.821C496.597 53.377 496.255 52.867 496.009 52.291C495.763 51.709 495.64 51.085 495.64 50.419C495.64 49.777 495.76 49.174 496 48.61C496.24 48.04 496.573 47.542 496.999 47.116C497.425 46.69 497.917 46.357 498.475 46.117C499.039 45.871 499.642 45.748 500.284 45.748C500.938 45.748 501.514 45.898 502.012 46.198C502.516 46.492 502.933 46.87 503.263 47.332L503.182 46ZM500.392 53.425C500.92 53.425 501.382 53.296 501.778 53.038C502.174 52.774 502.48 52.42 502.696 51.976C502.918 51.532 503.029 51.04 503.029 50.5C503.029 49.954 502.918 49.459 502.696 49.015C502.474 48.571 502.165 48.22 501.769 47.962C501.379 47.698 500.92 47.566 500.392 47.566C499.87 47.566 499.393 47.698 498.961 47.962C498.529 48.226 498.187 48.58 497.935 49.024C497.683 49.468 497.557 49.96 497.557 50.5C497.557 51.046 497.686 51.541 497.944 51.985C498.208 52.423 498.553 52.774 498.979 53.038C499.411 53.296 499.882 53.425 500.392 53.425ZM514.95 49.357V55H513.078V49.816C513.078 49.414 512.979 49.048 512.781 48.718C512.589 48.388 512.328 48.127 511.998 47.935C511.674 47.737 511.308 47.638 510.9 47.638C510.504 47.638 510.141 47.737 509.811 47.935C509.481 48.127 509.217 48.388 509.019 48.718C508.821 49.048 508.722 49.414 508.722 49.816V55H506.85V46H508.722V46.954C509.034 46.582 509.418 46.288 509.874 46.072C510.33 45.856 510.822 45.748 511.35 45.748C512.016 45.748 512.622 45.91 513.168 46.234C513.714 46.558 514.146 46.993 514.464 47.539C514.788 48.085 514.95 48.691 514.95 49.357ZM523.572 46H525.444V55H523.563L523.491 53.695C523.227 54.157 522.87 54.529 522.42 54.811C521.97 55.093 521.439 55.234 520.827 55.234C520.167 55.234 519.546 55.111 518.964 54.865C518.382 54.613 517.869 54.265 517.425 53.821C516.987 53.377 516.645 52.867 516.399 52.291C516.153 51.709 516.03 51.085 516.03 50.419C516.03 49.777 516.15 49.174 516.39 48.61C516.63 48.04 516.963 47.542 517.389 47.116C517.815 46.69 518.307 46.357 518.865 46.117C519.429 45.871 520.032 45.748 520.674 45.748C521.328 45.748 521.904 45.898 522.402 46.198C522.906 46.492 523.323 46.87 523.653 47.332L523.572 46ZM520.782 53.425C521.31 53.425 521.772 53.296 522.168 53.038C522.564 52.774 522.87 52.42 523.086 51.976C523.308 51.532 523.419 51.04 523.419 50.5C523.419 49.954 523.308 49.459 523.086 49.015C522.864 48.571 522.555 48.22 522.159 47.962C521.769 47.698 521.31 47.566 520.782 47.566C520.26 47.566 519.783 47.698 519.351 47.962C518.919 48.226 518.577 48.58 518.325 49.024C518.073 49.468 517.947 49.96 517.947 50.5C517.947 51.046 518.076 51.541 518.334 51.985C518.598 52.423 518.943 52.774 519.369 53.038C519.801 53.296 520.272 53.425 520.782 53.425ZM533.913 46H535.785V55.234C535.785 55.852 535.653 56.422 535.389 56.944C535.131 57.466 534.78 57.916 534.336 58.294C533.892 58.678 533.382 58.975 532.806 59.185C532.236 59.395 531.639 59.5 531.015 59.5C530.385 59.5 529.779 59.365 529.197 59.095C528.615 58.831 528.102 58.471 527.658 58.015C527.22 57.559 526.893 57.043 526.677 56.467L528.396 55.693C528.516 56.065 528.708 56.395 528.972 56.683C529.242 56.971 529.554 57.199 529.908 57.367C530.268 57.535 530.637 57.619 531.015 57.619C531.387 57.619 531.744 57.559 532.086 57.439C532.434 57.325 532.743 57.163 533.013 56.953C533.289 56.743 533.508 56.491 533.67 56.197C533.832 55.903 533.913 55.582 533.913 55.234V53.713C533.619 54.169 533.241 54.538 532.779 54.82C532.317 55.096 531.78 55.234 531.168 55.234C530.532 55.234 529.932 55.111 529.368 54.865C528.804 54.619 528.309 54.28 527.883 53.848C527.457 53.41 527.124 52.906 526.884 52.336C526.644 51.766 526.524 51.154 526.524 50.5C526.524 49.846 526.644 49.234 526.884 48.664C527.124 48.088 527.457 47.584 527.883 47.152C528.309 46.714 528.804 46.372 529.368 46.126C529.932 45.88 530.532 45.757 531.168 45.757C531.78 45.757 532.317 45.898 532.779 46.18C533.241 46.456 533.619 46.825 533.913 47.287V46ZM531.186 53.425C531.708 53.425 532.164 53.293 532.554 53.029C532.944 52.759 533.247 52.402 533.463 51.958C533.679 51.514 533.787 51.028 533.787 50.5C533.787 49.96 533.676 49.471 533.454 49.033C533.238 48.589 532.935 48.235 532.545 47.971C532.155 47.701 531.702 47.566 531.186 47.566C530.682 47.566 530.22 47.698 529.8 47.962C529.386 48.226 529.056 48.58 528.81 49.024C528.564 49.468 528.441 49.96 528.441 50.5C528.441 51.04 528.564 51.532 528.81 51.976C529.062 52.42 529.395 52.774 529.809 53.038C530.229 53.296 530.688 53.425 531.186 53.425ZM541.747 55.234C540.919 55.234 540.163 55.021 539.479 54.595C538.801 54.169 538.258 53.599 537.85 52.885C537.448 52.165 537.247 51.37 537.247 50.5C537.247 49.84 537.364 49.225 537.598 48.655C537.832 48.079 538.153 47.575 538.561 47.143C538.975 46.705 539.455 46.363 540.001 46.117C540.547 45.871 541.129 45.748 541.747 45.748C542.437 45.748 543.07 45.892 543.646 46.18C544.222 46.462 544.714 46.855 545.122 47.359C545.53 47.857 545.83 48.433 546.022 49.087C546.214 49.735 546.271 50.425 546.193 51.157H539.254C539.332 51.571 539.482 51.946 539.704 52.282C539.932 52.612 540.22 52.873 540.568 53.065C540.922 53.257 541.315 53.356 541.747 53.362C542.203 53.362 542.617 53.248 542.989 53.02C543.367 52.792 543.676 52.477 543.916 52.075L545.815 52.516C545.455 53.314 544.912 53.968 544.186 54.478C543.46 54.982 542.647 55.234 541.747 55.234ZM539.191 49.726H544.303C544.243 49.294 544.09 48.904 543.844 48.556C543.604 48.202 543.301 47.923 542.935 47.719C542.575 47.509 542.179 47.404 541.747 47.404C541.321 47.404 540.925 47.506 540.559 47.71C540.199 47.914 539.899 48.193 539.659 48.547C539.425 48.895 539.269 49.288 539.191 49.726ZM547.684 55V46H549.556V46.954C549.868 46.582 550.252 46.288 550.708 46.072C551.164 45.856 551.656 45.748 552.184 45.748C552.52 45.748 552.853 45.793 553.183 45.883L552.436 47.773C552.202 47.683 551.968 47.638 551.734 47.638C551.338 47.638 550.975 47.737 550.645 47.935C550.315 48.127 550.051 48.388 549.853 48.718C549.655 49.048 549.556 49.414 549.556 49.816V55H547.684Z" fill="#C9CBD0"/>
<rect x="1" y="1" width="318" height="338" rx="23" stroke="#2B2E37" stroke-width="2"/>
<rect x="20" y="23" width="280" height="52" rx="16" fill="#2B2E37"/>
<rect x="20" y="23" width="280" height="52" rx="16" fill="#FB5B0D" fill-opacity="0.16"/>
<circle cx="124" cy="49.0001" r="12.1564" fill="#020613"/>
<path d="M138 49C138 56.732 131.732 63 124 63C116.268 63 110 56.732 110 49C110 41.268 116.268 35 124 35C131.732 35 138 41.268 138 49Z" fill="#FB5B0D"/>
<path d="M123.91 56.7429C121.812 56.7429 119.8 55.9267 118.317 54.474C116.833 53.0213 116 51.0509 116 48.9964C116 46.942 116.833 44.9716 118.317 43.5189C119.8 42.0661 121.812 41.25 123.91 41.25V44.1324C122.927 44.1324 121.967 44.4177 121.15 44.9521C120.334 45.4866 119.697 46.2463 119.321 47.135C118.945 48.0238 118.847 49.0018 119.039 49.9454C119.23 50.8889 119.703 51.7556 120.398 52.4358C121.092 53.1161 121.977 53.5793 122.941 53.767C123.904 53.9547 124.903 53.8584 125.81 53.4902C126.718 53.1221 127.493 52.4986 128.039 51.6988C128.585 50.8989 128.876 49.9585 128.876 48.9964H131.819C131.817 51.0502 130.983 53.0191 129.5 54.4714C128.017 55.9236 126.007 56.7405 123.91 56.7429Z" fill="white"/>
<path d="M127.034 48.9964H124.09C124.093 46.9428 124.928 44.9742 126.41 43.522C127.893 42.0699 129.903 41.2529 132 41.25V44.1324C130.683 44.1324 129.42 44.6449 128.488 45.557C127.557 46.4692 127.034 47.7064 127.034 48.9964Z" fill="white"/>
<path d="M155.388 55.234C154.536 55.234 153.735 55.066 152.985 54.73C152.235 54.388 151.575 53.917 151.005 53.317C150.435 52.717 149.988 52.024 149.664 51.238C149.34 50.446 149.178 49.6 149.178 48.7C149.178 47.8 149.34 46.957 149.664 46.171C149.988 45.379 150.435 44.683 151.005 44.083C151.575 43.483 152.235 43.015 152.985 42.679C153.735 42.337 154.536 42.166 155.388 42.166C156.246 42.166 157.05 42.337 157.8 42.679C158.55 43.015 159.21 43.483 159.78 44.083C160.35 44.683 160.794 45.379 161.112 46.171C161.436 46.957 161.598 47.8 161.598 48.7C161.598 49.6 161.436 50.446 161.112 51.238C160.794 52.024 160.35 52.717 159.78 53.317C159.21 53.917 158.55 54.388 157.8 54.73C157.05 55.066 156.246 55.234 155.388 55.234ZM155.388 53.362C155.988 53.362 156.549 53.239 157.071 52.993C157.593 52.747 158.052 52.411 158.448 51.985C158.85 51.553 159.162 51.058 159.384 50.5C159.612 49.936 159.726 49.336 159.726 48.7C159.726 48.064 159.612 47.464 159.384 46.9C159.162 46.336 158.85 45.841 158.448 45.415C158.052 44.983 157.593 44.647 157.071 44.407C156.549 44.161 155.988 44.038 155.388 44.038C154.788 44.038 154.227 44.161 153.705 44.407C153.183 44.653 152.721 44.992 152.319 45.424C151.923 45.85 151.611 46.345 151.383 46.909C151.161 47.467 151.05 48.064 151.05 48.7C151.05 49.342 151.161 49.945 151.383 50.509C151.611 51.067 151.923 51.562 152.319 51.994C152.721 52.42 153.183 52.756 153.705 53.002C154.227 53.242 154.788 53.362 155.388 53.362ZM163.337 55V46H165.209V46.954C165.521 46.582 165.905 46.288 166.361 46.072C166.817 45.856 167.309 45.748 167.837 45.748C168.173 45.748 168.506 45.793 168.836 45.883L168.089 47.773C167.855 47.683 167.621 47.638 167.387 47.638C166.991 47.638 166.628 47.737 166.298 47.935C165.968 48.127 165.704 48.388 165.506 48.718C165.308 49.048 165.209 49.414 165.209 49.816V55H163.337ZM176.456 46H178.328V55H176.447L176.375 53.695C176.111 54.157 175.754 54.529 175.304 54.811C174.854 55.093 174.323 55.234 173.711 55.234C173.051 55.234 172.43 55.111 171.848 54.865C171.266 54.613 170.753 54.265 170.309 53.821C169.871 53.377 169.529 52.867 169.283 52.291C169.037 51.709 168.914 51.085 168.914 50.419C168.914 49.777 169.034 49.174 169.274 48.61C169.514 48.04 169.847 47.542 170.273 47.116C170.699 46.69 171.191 46.357 171.749 46.117C172.313 45.871 172.916 45.748 173.558 45.748C174.212 45.748 174.788 45.898 175.286 46.198C175.79 46.492 176.207 46.87 176.537 47.332L176.456 46ZM173.666 53.425C174.194 53.425 174.656 53.296 175.052 53.038C175.448 52.774 175.754 52.42 175.97 51.976C176.192 51.532 176.303 51.04 176.303 50.5C176.303 49.954 176.192 49.459 175.97 49.015C175.748 48.571 175.439 48.22 175.043 47.962C174.653 47.698 174.194 47.566 173.666 47.566C173.144 47.566 172.667 47.698 172.235 47.962C171.803 48.226 171.461 48.58 171.209 49.024C170.957 49.468 170.831 49.96 170.831 50.5C170.831 51.046 170.96 51.541 171.218 51.985C171.482 52.423 171.827 52.774 172.253 53.038C172.685 53.296 173.156 53.425 173.666 53.425ZM188.224 49.357V55H186.352V49.816C186.352 49.414 186.253 49.048 186.055 48.718C185.863 48.388 185.602 48.127 185.272 47.935C184.948 47.737 184.582 47.638 184.174 47.638C183.778 47.638 183.415 47.737 183.085 47.935C182.755 48.127 182.491 48.388 182.293 48.718C182.095 49.048 181.996 49.414 181.996 49.816V55H180.124V46H181.996V46.954C182.308 46.582 182.692 46.288 183.148 46.072C183.604 45.856 184.096 45.748 184.624 45.748C185.29 45.748 185.896 45.91 186.442 46.234C186.988 46.558 187.42 46.993 187.738 47.539C188.062 48.085 188.224 48.691 188.224 49.357ZM196.694 46H198.566V55.234C198.566 55.852 198.434 56.422 198.17 56.944C197.912 57.466 197.561 57.916 197.117 58.294C196.673 58.678 196.163 58.975 195.587 59.185C195.017 59.395 194.42 59.5 193.796 59.5C193.166 59.5 192.56 59.365 191.978 59.095C191.396 58.831 190.883 58.471 190.439 58.015C190.001 57.559 189.674 57.043 189.458 56.467L191.177 55.693C191.297 56.065 191.489 56.395 191.753 56.683C192.023 56.971 192.335 57.199 192.689 57.367C193.049 57.535 193.418 57.619 193.796 57.619C194.168 57.619 194.525 57.559 194.867 57.439C195.215 57.325 195.524 57.163 195.794 56.953C196.07 56.743 196.289 56.491 196.451 56.197C196.613 55.903 196.694 55.582 196.694 55.234V53.713C196.4 54.169 196.022 54.538 195.56 54.82C195.098 55.096 194.561 55.234 193.949 55.234C193.313 55.234 192.713 55.111 192.149 54.865C191.585 54.619 191.09 54.28 190.664 53.848C190.238 53.41 189.905 52.906 189.665 52.336C189.425 51.766 189.305 51.154 189.305 50.5C189.305 49.846 189.425 49.234 189.665 48.664C189.905 48.088 190.238 47.584 190.664 47.152C191.09 46.714 191.585 46.372 192.149 46.126C192.713 45.88 193.313 45.757 193.949 45.757C194.561 45.757 195.098 45.898 195.56 46.18C196.022 46.456 196.4 46.825 196.694 47.287V46ZM193.967 53.425C194.489 53.425 194.945 53.293 195.335 53.029C195.725 52.759 196.028 52.402 196.244 51.958C196.46 51.514 196.568 51.028 196.568 50.5C196.568 49.96 196.457 49.471 196.235 49.033C196.019 48.589 195.716 48.235 195.326 47.971C194.936 47.701 194.483 47.566 193.967 47.566C193.463 47.566 193.001 47.698 192.581 47.962C192.167 48.226 191.837 48.58 191.591 49.024C191.345 49.468 191.222 49.96 191.222 50.5C191.222 51.04 191.345 51.532 191.591 51.976C191.843 52.42 192.176 52.774 192.59 53.038C193.01 53.296 193.469 53.425 193.967 53.425ZM204.527 55.234C203.699 55.234 202.943 55.021 202.259 54.595C201.581 54.169 201.038 53.599 200.63 52.885C200.228 52.165 200.027 51.37 200.027 50.5C200.027 49.84 200.144 49.225 200.378 48.655C200.612 48.079 200.933 47.575 201.341 47.143C201.755 46.705 202.235 46.363 202.781 46.117C203.327 45.871 203.909 45.748 204.527 45.748C205.217 45.748 205.85 45.892 206.426 46.18C207.002 46.462 207.494 46.855 207.902 47.359C208.31 47.857 208.61 48.433 208.802 49.087C208.994 49.735 209.051 50.425 208.973 51.157H202.034C202.112 51.571 202.262 51.946 202.484 52.282C202.712 52.612 203 52.873 203.348 53.065C203.702 53.257 204.095 53.356 204.527 53.362C204.983 53.362 205.397 53.248 205.769 53.02C206.147 52.792 206.456 52.477 206.696 52.075L208.595 52.516C208.235 53.314 207.692 53.968 206.966 54.478C206.24 54.982 205.427 55.234 204.527 55.234ZM201.971 49.726H207.083C207.023 49.294 206.87 48.904 206.624 48.556C206.384 48.202 206.081 47.923 205.715 47.719C205.355 47.509 204.959 47.404 204.527 47.404C204.101 47.404 203.705 47.506 203.339 47.71C202.979 47.914 202.679 48.193 202.439 48.547C202.205 48.895 202.049 49.288 201.971 49.726Z" fill="white"/>
<rect x="20" y="268" width="280" height="48" rx="16" fill="#2B2E37"/>
<rect x="20" y="268" width="280" height="48" rx="16" fill="#49D5DD" fill-opacity="0.16"/>
<circle cx="97.5" cy="292" r="14" fill="#49D5DD"/>
<circle cx="97.5001" cy="292" r="12.1564" fill="#020613"/>
<path d="M109.657 292C109.657 298.714 104.214 304.156 97.5001 304.156C90.7863 304.156 85.3438 298.714 85.3438 292C85.3438 285.286 90.7863 279.844 97.5001 279.844C104.214 279.844 109.657 285.286 109.657 292Z" fill="#49D5DD"/>
<g clip-path="url(#clip1_5116_16843)">
<path fill-rule="evenodd" clip-rule="evenodd" d="M92.2709 286.385C92.0133 285.058 93.0438 283.833 94.3834 283.833C95.5685 283.833 96.5474 284.803 96.5474 285.977V288.631C96.8566 288.631 97.1657 288.58 97.4749 288.58C97.784 288.58 98.0417 288.58 98.3508 288.631V285.977C98.3508 284.803 99.3298 283.833 100.515 283.833C101.854 283.833 102.885 285.058 102.679 286.385L102.112 289.499C104.122 290.367 105.667 291.898 105.667 293.786V294.96C105.667 296.543 104.637 297.87 103.143 298.737C101.648 299.656 99.6905 300.167 97.4749 300.167C95.2593 300.167 93.3014 299.656 91.8072 298.737C90.3645 297.87 89.334 296.543 89.334 294.96V293.786C89.334 291.898 90.8282 290.367 92.8377 289.499L92.2709 286.385ZM101.339 289.907L102.009 286.232C102.164 285.313 101.494 284.446 100.515 284.446C99.6905 284.446 99.0206 285.109 99.0206 285.926V289.295C98.8145 289.244 98.5569 289.244 98.3508 289.244C98.0417 289.244 97.784 289.193 97.4749 289.193C97.1657 289.193 96.8566 289.193 96.5474 289.244C96.3413 289.244 96.0837 289.295 95.8776 289.295V285.977C95.8776 285.16 95.2078 284.497 94.3834 284.497C93.456 284.497 92.7346 285.365 92.9407 286.283L93.6105 289.958C91.4465 290.775 90.0038 292.204 90.0038 293.837V295.011C90.0038 297.512 93.3529 299.554 97.4749 299.554C101.597 299.554 104.946 297.512 104.946 295.011V293.837C104.997 292.153 103.555 290.724 101.339 289.907Z" fill="#633001"/>
<path d="M104.997 294.96C104.997 297.461 101.648 299.503 97.5258 299.503C93.4038 299.503 90.0547 297.461 90.0547 294.96V293.786H105.048V294.96H104.997Z" fill="#FEDC90"/>
<path fill-rule="evenodd" clip-rule="evenodd" d="M92.9401 286.283C92.734 285.365 93.4553 284.497 94.3828 284.497C95.2072 284.497 95.877 285.16 95.877 285.977V289.346C96.3922 289.295 96.9075 289.244 97.4742 289.244C97.9895 289.244 98.5047 289.295 99.02 289.346V285.977C99.02 285.16 99.6898 284.497 100.514 284.497C101.442 284.497 102.163 285.365 102.008 286.283L101.339 289.958C103.503 290.775 104.997 292.204 104.997 293.837C104.997 296.338 101.648 298.38 97.5258 298.38C93.4038 298.38 90.0547 296.338 90.0547 293.837C90.0547 292.204 91.4974 290.775 93.6614 289.958L92.9401 286.283Z" fill="#D1884F"/>
<path d="M95.4144 293.48C95.4144 294.144 95.0537 294.705 94.59 294.705C94.1263 294.705 93.7656 294.144 93.7656 293.48C93.7656 292.817 94.1263 292.255 94.59 292.255C95.0537 292.255 95.4144 292.817 95.4144 293.48Z" fill="#633001"/>
<path d="M101.133 293.48C101.133 294.144 100.772 294.705 100.309 294.705C99.845 294.705 99.4844 294.144 99.4844 293.48C99.4844 292.817 99.845 292.255 100.309 292.255C100.772 292.255 101.133 292.817 101.133 293.48Z" fill="#633001"/>
</g>
<path fill-rule="evenodd" clip-rule="evenodd" d="M97.5001 303.695C103.959 303.695 109.196 298.459 109.196 292C109.196 285.541 103.959 280.304 97.5001 280.304C91.0409 280.304 85.8047 285.541 85.8047 292C85.8047 298.459 91.0409 303.695 97.5001 303.695ZM97.5001 304.156C104.214 304.156 109.657 298.714 109.657 292C109.657 285.286 104.214 279.844 97.5001 279.844C90.7863 279.844 85.3438 285.286 85.3438 292C85.3438 298.714 90.7863 304.156 97.5001 304.156Z" fill="#37A9B0"/>
<path d="M122.652 298V285.4H126.99C127.668 285.4 128.28 285.568 128.826 285.904C129.378 286.24 129.816 286.693 130.14 287.263C130.47 287.833 130.635 288.463 130.635 289.153C130.635 289.855 130.467 290.491 130.131 291.061C129.801 291.625 129.36 292.075 128.808 292.411C128.256 292.747 127.65 292.915 126.99 292.915H124.524V298H122.652ZM124.524 291.043H126.801C127.161 291.043 127.488 290.953 127.782 290.773C128.082 290.593 128.319 290.353 128.493 290.053C128.673 289.753 128.763 289.414 128.763 289.036C128.763 288.658 128.673 288.319 128.493 288.019C128.319 287.713 128.082 287.473 127.782 287.299C127.488 287.119 127.161 287.029 126.801 287.029H124.524V291.043ZM138.672 289H140.544V298H138.663L138.591 296.695C138.327 297.157 137.97 297.529 137.52 297.811C137.07 298.093 136.539 298.234 135.927 298.234C135.267 298.234 134.646 298.111 134.064 297.865C133.482 297.613 132.969 297.265 132.525 296.821C132.087 296.377 131.745 295.867 131.499 295.291C131.253 294.709 131.13 294.085 131.13 293.419C131.13 292.777 131.25 292.174 131.49 291.61C131.73 291.04 132.063 290.542 132.489 290.116C132.915 289.69 133.407 289.357 133.965 289.117C134.529 288.871 135.132 288.748 135.774 288.748C136.428 288.748 137.004 288.898 137.502 289.198C138.006 289.492 138.423 289.87 138.753 290.332L138.672 289ZM135.882 296.425C136.41 296.425 136.872 296.296 137.268 296.038C137.664 295.774 137.97 295.42 138.186 294.976C138.408 294.532 138.519 294.04 138.519 293.5C138.519 292.954 138.408 292.459 138.186 292.015C137.964 291.571 137.655 291.22 137.259 290.962C136.869 290.698 136.41 290.566 135.882 290.566C135.36 290.566 134.883 290.698 134.451 290.962C134.019 291.226 133.677 291.58 133.425 292.024C133.173 292.468 133.047 292.96 133.047 293.5C133.047 294.046 133.176 294.541 133.434 294.985C133.698 295.423 134.043 295.774 134.469 296.038C134.901 296.296 135.372 296.425 135.882 296.425ZM150.44 292.357V298H148.568V292.816C148.568 292.414 148.469 292.048 148.271 291.718C148.079 291.388 147.818 291.127 147.488 290.935C147.164 290.737 146.798 290.638 146.39 290.638C145.994 290.638 145.631 290.737 145.301 290.935C144.971 291.127 144.707 291.388 144.509 291.718C144.311 292.048 144.212 292.414 144.212 292.816V298H142.34V289H144.212V289.954C144.524 289.582 144.908 289.288 145.364 289.072C145.82 288.856 146.312 288.748 146.84 288.748C147.506 288.748 148.112 288.91 148.658 289.234C149.204 289.558 149.636 289.993 149.954 290.539C150.278 291.085 150.44 291.691 150.44 292.357ZM157.937 295.444L159.611 296.353C159.203 296.923 158.684 297.379 158.054 297.721C157.43 298.063 156.752 298.234 156.02 298.234C155.192 298.234 154.436 298.021 153.752 297.595C153.074 297.169 152.531 296.599 152.123 295.885C151.721 295.165 151.52 294.37 151.52 293.5C151.52 292.84 151.637 292.225 151.871 291.655C152.105 291.079 152.426 290.575 152.834 290.143C153.248 289.705 153.728 289.363 154.274 289.117C154.82 288.871 155.402 288.748 156.02 288.748C156.752 288.748 157.43 288.919 158.054 289.261C158.684 289.603 159.203 290.062 159.611 290.638L157.937 291.547C157.685 291.247 157.391 291.019 157.055 290.863C156.719 290.701 156.374 290.62 156.02 290.62C155.528 290.62 155.081 290.755 154.679 291.025C154.283 291.289 153.968 291.64 153.734 292.078C153.506 292.51 153.392 292.984 153.392 293.5C153.392 294.01 153.509 294.484 153.743 294.922C153.977 295.354 154.292 295.702 154.688 295.966C155.09 296.23 155.534 296.362 156.02 296.362C156.392 296.362 156.746 296.278 157.082 296.11C157.418 295.942 157.703 295.72 157.937 295.444ZM168.01 289H169.882V298H168.001L167.929 296.695C167.665 297.157 167.308 297.529 166.858 297.811C166.408 298.093 165.877 298.234 165.265 298.234C164.605 298.234 163.984 298.111 163.402 297.865C162.82 297.613 162.307 297.265 161.863 296.821C161.425 296.377 161.083 295.867 160.837 295.291C160.591 294.709 160.468 294.085 160.468 293.419C160.468 292.777 160.588 292.174 160.828 291.61C161.068 291.04 161.401 290.542 161.827 290.116C162.253 289.69 162.745 289.357 163.303 289.117C163.867 288.871 164.47 288.748 165.112 288.748C165.766 288.748 166.342 288.898 166.84 289.198C167.344 289.492 167.761 289.87 168.091 290.332L168.01 289ZM165.22 296.425C165.748 296.425 166.21 296.296 166.606 296.038C167.002 295.774 167.308 295.42 167.524 294.976C167.746 294.532 167.857 294.04 167.857 293.5C167.857 292.954 167.746 292.459 167.524 292.015C167.302 291.571 166.993 291.22 166.597 290.962C166.207 290.698 165.748 290.566 165.22 290.566C164.698 290.566 164.221 290.698 163.789 290.962C163.357 291.226 163.015 291.58 162.763 292.024C162.511 292.468 162.385 292.96 162.385 293.5C162.385 294.046 162.514 294.541 162.772 294.985C163.036 295.423 163.381 295.774 163.807 296.038C164.239 296.296 164.71 296.425 165.22 296.425ZM179.443 298H177.283L175.069 294.184L173.62 295.912V298H171.748V284.5H173.62V293.005L176.968 289H179.416L176.347 292.663L179.443 298ZM184.321 298.234C183.493 298.234 182.737 298.021 182.053 297.595C181.375 297.169 180.832 296.599 180.424 295.885C180.022 295.165 179.821 294.37 179.821 293.5C179.821 292.84 179.938 292.225 180.172 291.655C180.406 291.079 180.727 290.575 181.135 290.143C181.549 289.705 182.029 289.363 182.575 289.117C183.121 288.871 183.703 288.748 184.321 288.748C185.011 288.748 185.644 288.892 186.22 289.18C186.796 289.462 187.288 289.855 187.696 290.359C188.104 290.857 188.404 291.433 188.596 292.087C188.788 292.735 188.845 293.425 188.767 294.157H181.828C181.906 294.571 182.056 294.946 182.278 295.282C182.506 295.612 182.794 295.873 183.142 296.065C183.496 296.257 183.889 296.356 184.321 296.362C184.777 296.362 185.191 296.248 185.563 296.02C185.941 295.792 186.25 295.477 186.49 295.075L188.389 295.516C188.029 296.314 187.486 296.968 186.76 297.478C186.034 297.982 185.221 298.234 184.321 298.234ZM181.765 292.726H186.877C186.817 292.294 186.664 291.904 186.418 291.556C186.178 291.202 185.875 290.923 185.509 290.719C185.149 290.509 184.753 290.404 184.321 290.404C183.895 290.404 183.499 290.506 183.133 290.71C182.773 290.914 182.473 291.193 182.233 291.547C181.999 291.895 181.843 292.288 181.765 292.726ZM194.907 298.234C194.217 298.234 193.554 298.126 192.918 297.91C192.282 297.694 191.727 297.385 191.253 296.983C190.779 296.575 190.44 296.092 190.236 295.534L191.991 294.877C192.093 295.165 192.288 295.423 192.576 295.651C192.87 295.873 193.218 296.047 193.62 296.173C194.028 296.299 194.457 296.362 194.907 296.362C195.387 296.362 195.837 296.284 196.257 296.128C196.683 295.972 197.025 295.756 197.283 295.48C197.547 295.204 197.679 294.88 197.679 294.508C197.679 294.124 197.541 293.809 197.265 293.563C196.995 293.317 196.647 293.122 196.221 292.978C195.801 292.834 195.363 292.726 194.907 292.654C194.025 292.51 193.233 292.3 192.531 292.024C191.835 291.748 191.283 291.361 190.875 290.863C190.473 290.365 190.272 289.717 190.272 288.919C190.272 288.169 190.485 287.515 190.911 286.957C191.343 286.399 191.91 285.967 192.612 285.661C193.32 285.349 194.085 285.193 194.907 285.193C195.585 285.193 196.239 285.301 196.869 285.517C197.505 285.727 198.063 286.036 198.543 286.444C199.029 286.846 199.377 287.335 199.587 287.911L197.814 288.55C197.712 288.256 197.517 288.001 197.229 287.785C196.941 287.563 196.593 287.389 196.185 287.263C195.783 287.137 195.357 287.074 194.907 287.074C194.427 287.068 193.977 287.146 193.557 287.308C193.143 287.464 192.804 287.68 192.54 287.956C192.276 288.232 192.144 288.553 192.144 288.919C192.144 289.369 192.267 289.711 192.513 289.945C192.759 290.179 193.089 290.353 193.503 290.467C193.923 290.575 194.391 290.674 194.907 290.764C195.735 290.896 196.5 291.115 197.202 291.421C197.91 291.727 198.477 292.135 198.903 292.645C199.335 293.149 199.551 293.77 199.551 294.508C199.551 295.252 199.335 295.906 198.903 296.47C198.477 297.028 197.91 297.463 197.202 297.775C196.5 298.081 195.735 298.234 194.907 298.234ZM205.617 298H203.754L200.739 289H202.575L204.699 295.318L206.805 289H208.695L210.801 295.318L212.916 289H214.752L211.746 298H209.865L207.741 291.637L205.617 298ZM222.801 289H224.673V298H222.792L222.72 296.695C222.456 297.157 222.099 297.529 221.649 297.811C221.199 298.093 220.668 298.234 220.056 298.234C219.396 298.234 218.775 298.111 218.193 297.865C217.611 297.613 217.098 297.265 216.654 296.821C216.216 296.377 215.874 295.867 215.628 295.291C215.382 294.709 215.259 294.085 215.259 293.419C215.259 292.777 215.379 292.174 215.619 291.61C215.859 291.04 216.192 290.542 216.618 290.116C217.044 289.69 217.536 289.357 218.094 289.117C218.658 288.871 219.261 288.748 219.903 288.748C220.557 288.748 221.133 288.898 221.631 289.198C222.135 289.492 222.552 289.87 222.882 290.332L222.801 289ZM220.011 296.425C220.539 296.425 221.001 296.296 221.397 296.038C221.793 295.774 222.099 295.42 222.315 294.976C222.537 294.532 222.648 294.04 222.648 293.5C222.648 292.954 222.537 292.459 222.315 292.015C222.093 291.571 221.784 291.22 221.388 290.962C220.998 290.698 220.539 290.566 220.011 290.566C219.489 290.566 219.012 290.698 218.58 290.962C218.148 291.226 217.806 291.58 217.554 292.024C217.302 292.468 217.176 292.96 217.176 293.5C217.176 294.046 217.305 294.541 217.563 294.985C217.827 295.423 218.172 295.774 218.598 296.038C219.03 296.296 219.501 296.425 220.011 296.425ZM228.341 302.5H226.469V289H228.341V290.323C228.641 289.861 229.025 289.486 229.493 289.198C229.961 288.91 230.513 288.766 231.149 288.766C231.803 288.766 232.415 288.889 232.985 289.135C233.561 289.381 234.065 289.723 234.497 290.161C234.929 290.593 235.268 291.094 235.514 291.664C235.76 292.234 235.883 292.846 235.883 293.5C235.883 294.154 235.76 294.769 235.514 295.345C235.268 295.921 234.929 296.428 234.497 296.866C234.065 297.298 233.561 297.637 232.985 297.883C232.415 298.129 231.803 298.252 231.149 298.252C230.513 298.252 229.961 298.108 229.493 297.82C229.025 297.526 228.641 297.151 228.341 296.695V302.5ZM231.131 290.575C230.609 290.575 230.15 290.707 229.754 290.971C229.358 291.235 229.049 291.589 228.827 292.033C228.605 292.471 228.494 292.96 228.494 293.5C228.494 294.04 228.605 294.532 228.827 294.976C229.049 295.42 229.358 295.774 229.754 296.038C230.15 296.302 230.609 296.434 231.131 296.434C231.647 296.434 232.121 296.305 232.553 296.047C232.985 295.783 233.33 295.429 233.588 294.985C233.846 294.541 233.975 294.046 233.975 293.5C233.975 292.966 233.846 292.477 233.588 292.033C233.336 291.589 232.994 291.235 232.562 290.971C232.13 290.707 231.653 290.575 231.131 290.575Z" fill="white"/>
<rect x="20" y="212" width="280" height="48" rx="16" fill="#2B2E37"/>
<rect x="20" y="212" width="280" height="48" rx="16" fill="#EBFF00" fill-opacity="0.16"/>
<circle cx="128.5" cy="236" r="12.1564" fill="#020613"/>
<path d="M142.5 236C142.5 243.732 136.232 250 128.5 250C120.768 250 114.5 243.732 114.5 236C114.5 228.268 120.768 222 128.5 222C136.232 222 142.5 228.268 142.5 236Z" fill="#EBFF00"/>
<path d="M130.048 227.91H133.137L132.596 230.951H129.508L130.048 227.91Z" fill="black"/>
<path d="M122.615 230.953H129.509L128.606 236.03H121.713L122.615 230.953Z" fill="black"/>
<path d="M134.598 241.109H127.705L128.608 236.031H135.501L134.598 241.109Z" fill="black"/>
<path d="M127.165 244.147H124.076L124.617 241.106H127.705L127.165 244.147Z" fill="black"/>
<path d="M158.529 242.234C157.839 242.234 157.176 242.126 156.54 241.91C155.904 241.694 155.349 241.385 154.875 240.983C154.401 240.575 154.062 240.092 153.858 239.534L155.613 238.877C155.715 239.165 155.91 239.423 156.198 239.651C156.492 239.873 156.84 240.047 157.242 240.173C157.65 240.299 158.079 240.362 158.529 240.362C159.009 240.362 159.459 240.284 159.879 240.128C160.305 239.972 160.647 239.756 160.905 239.48C161.169 239.204 161.301 238.88 161.301 238.508C161.301 238.124 161.163 237.809 160.887 237.563C160.617 237.317 160.269 237.122 159.843 236.978C159.423 236.834 158.985 236.726 158.529 236.654C157.647 236.51 156.855 236.3 156.153 236.024C155.457 235.748 154.905 235.361 154.497 234.863C154.095 234.365 153.894 233.717 153.894 232.919C153.894 232.169 154.107 231.515 154.533 230.957C154.965 230.399 155.532 229.967 156.234 229.661C156.942 229.349 157.707 229.193 158.529 229.193C159.207 229.193 159.861 229.301 160.491 229.517C161.127 229.727 161.685 230.036 162.165 230.444C162.651 230.846 162.999 231.335 163.209 231.911L161.436 232.55C161.334 232.256 161.139 232.001 160.851 231.785C160.563 231.563 160.215 231.389 159.807 231.263C159.405 231.137 158.979 231.074 158.529 231.074C158.049 231.068 157.599 231.146 157.179 231.308C156.765 231.464 156.426 231.68 156.162 231.956C155.898 232.232 155.766 232.553 155.766 232.919C155.766 233.369 155.889 233.711 156.135 233.945C156.381 234.179 156.711 234.353 157.125 234.467C157.545 234.575 158.013 234.674 158.529 234.764C159.357 234.896 160.122 235.115 160.824 235.421C161.532 235.727 162.099 236.135 162.525 236.645C162.957 237.149 163.173 237.77 163.173 238.508C163.173 239.252 162.957 239.906 162.525 240.47C162.099 241.028 161.532 241.463 160.824 241.775C160.122 242.081 159.357 242.234 158.529 242.234ZM169.776 234.872H167.886L167.877 242H166.005L166.014 234.872H164.583V233H166.014L166.005 230.174H167.877L167.886 233H169.776V234.872ZM171.388 242V233H173.26V233.954C173.572 233.582 173.956 233.288 174.412 233.072C174.868 232.856 175.36 232.748 175.888 232.748C176.224 232.748 176.557 232.793 176.887 232.883L176.14 234.773C175.906 234.683 175.672 234.638 175.438 234.638C175.042 234.638 174.679 234.737 174.349 234.935C174.019 235.127 173.755 235.388 173.557 235.718C173.359 236.048 173.26 236.414 173.26 236.816V242H171.388ZM184.109 233H186.107L181.175 246.5H179.186L180.815 242L177.584 233H179.627L181.751 239.435L184.109 233ZM195.149 242H192.989L190.775 238.184L189.326 239.912V242H187.454V228.5H189.326V237.005L192.674 233H195.122L192.053 236.663L195.149 242ZM200.027 242.234C199.199 242.234 198.443 242.021 197.759 241.595C197.081 241.169 196.538 240.599 196.13 239.885C195.728 239.165 195.527 238.37 195.527 237.5C195.527 236.84 195.644 236.225 195.878 235.655C196.112 235.079 196.433 234.575 196.841 234.143C197.255 233.705 197.735 233.363 198.281 233.117C198.827 232.871 199.409 232.748 200.027 232.748C200.717 232.748 201.35 232.892 201.926 233.18C202.502 233.462 202.994 233.855 203.402 234.359C203.81 234.857 204.11 235.433 204.302 236.087C204.494 236.735 204.551 237.425 204.473 238.157H197.534C197.612 238.571 197.762 238.946 197.984 239.282C198.212 239.612 198.5 239.873 198.848 240.065C199.202 240.257 199.595 240.356 200.027 240.362C200.483 240.362 200.897 240.248 201.269 240.02C201.647 239.792 201.956 239.477 202.196 239.075L204.095 239.516C203.735 240.314 203.192 240.968 202.466 241.478C201.74 241.982 200.927 242.234 200.027 242.234ZM197.471 236.726H202.583C202.523 236.294 202.37 235.904 202.124 235.556C201.884 235.202 201.581 234.923 201.215 234.719C200.855 234.509 200.459 234.404 200.027 234.404C199.601 234.404 199.205 234.506 198.839 234.71C198.479 234.914 198.179 235.193 197.939 235.547C197.705 235.895 197.549 236.288 197.471 236.726Z" fill="white"/>
<path d="M100.707 86.2929C100.317 85.9024 99.6834 85.9024 99.2929 86.2929L92.9289 92.6569C92.5384 93.0474 92.5384 93.6805 92.9289 94.0711C93.3195 94.4616 93.9526 94.4616 94.3431 94.0711L100 88.4142L105.657 94.0711C106.047 94.4616 106.681 94.4616 107.071 94.0711C107.462 93.6805 107.462 93.0474 107.071 92.6569L100.707 86.2929ZM99 87L99 212L101 212L101 87L99 87Z" fill="#FB5B0D"/>
<path d="M219.293 200.707C219.683 201.098 220.317 201.098 220.707 200.707L227.071 194.343C227.462 193.953 227.462 193.319 227.071 192.929C226.681 192.538 226.047 192.538 225.657 192.929L220 198.586L214.343 192.929C213.953 192.538 213.319 192.538 212.929 192.929C212.538 193.319 212.538 193.953 212.929 194.343L219.293 200.707ZM221 200L221 75L219 75L219 200L221 200Z" fill="#5F636F"/>
<rect width="64" height="20" transform="translate(188 127)" fill="#1E212A"/>
<path d="M213.423 142V132.2H214.879V140.544H219.1V142H213.423ZM220.641 142V132.2H224.015C224.543 132.2 225.019 132.331 225.443 132.592C225.873 132.853 226.213 133.206 226.465 133.649C226.722 134.092 226.85 134.582 226.85 135.119C226.85 135.665 226.72 136.16 226.458 136.603C226.202 137.042 225.859 137.392 225.429 137.653C225 137.914 224.529 138.045 224.015 138.045H222.097V142H220.641ZM222.097 136.589H223.868C224.148 136.589 224.403 136.519 224.631 136.379C224.865 136.239 225.049 136.052 225.184 135.819C225.324 135.586 225.394 135.322 225.394 135.028C225.394 134.734 225.324 134.47 225.184 134.237C225.049 133.999 224.865 133.812 224.631 133.677C224.403 133.537 224.148 133.467 223.868 133.467H222.097V136.589Z" fill="white"/>
<rect width="64" height="55" transform="translate(68 122)" fill="#1E212A"/>
<path d="M53.3575 145.5L55.9195 141.986L53.3785 138.493H55.4855L56.9695 140.53L58.4605 138.493H60.5675L58.0265 141.986L60.5885 145.5H58.4815L56.9695 143.428L55.4645 145.5H53.3575ZM62.943 145.5V137.408H61.711L62.173 135.7H64.651V145.5H62.943ZM67.2071 145.682C66.9644 145.682 66.7568 145.598 66.5841 145.43C66.4161 145.257 66.3321 145.047 66.3321 144.8C66.3321 144.562 66.4161 144.357 66.5841 144.184C66.7568 144.011 66.9644 143.925 67.2071 143.925C67.4498 143.925 67.6574 144.011 67.8301 144.184C68.0028 144.357 68.0891 144.562 68.0891 144.8C68.0891 145.047 68.0028 145.257 67.8301 145.43C67.6574 145.598 67.4498 145.682 67.2071 145.682ZM73.6623 145.5V143.127H69.4903V141.412L73.2633 135.7H75.3703V141.419H76.1963V143.127H75.3703V145.5H73.6623ZM71.4713 141.412L73.6623 141.419L73.6553 138.031L71.4713 141.412ZM78.3397 139.438L78.0037 139.186L78.9977 137.814L77.3877 137.282L77.5137 136.89L79.1377 137.408V135.7H79.5577V137.408L81.1817 136.89L81.3077 137.282L79.6837 137.814L80.6917 139.186L80.3417 139.438L79.3477 138.052L78.3397 139.438ZM86.0672 145.5V135.7H89.8262C90.3582 135.7 90.8388 135.833 91.2682 136.099C91.6975 136.365 92.0382 136.722 92.2902 137.17C92.5422 137.613 92.6682 138.106 92.6682 138.647C92.6682 139.09 92.5865 139.499 92.4232 139.872C92.2645 140.241 92.0405 140.56 91.7512 140.831C91.4665 141.102 91.1375 141.307 90.7642 141.447L93.1092 145.5H91.1422L88.8742 141.601H87.7752V145.5H86.0672ZM87.7752 139.893H89.6302C89.8728 139.893 90.0945 139.832 90.2952 139.711C90.4958 139.59 90.6568 139.426 90.7782 139.221C90.8995 139.016 90.9602 138.787 90.9602 138.535C90.9602 138.278 90.8995 138.047 90.7782 137.842C90.6568 137.637 90.4958 137.473 90.2952 137.352C90.0945 137.231 89.8728 137.17 89.6302 137.17H87.7752V139.893ZM97.0495 145.682C96.4055 145.682 95.8175 145.516 95.2855 145.185C94.7582 144.854 94.3358 144.408 94.0185 143.848C93.7058 143.288 93.5495 142.67 93.5495 141.993C93.5495 141.484 93.6405 141.008 93.8225 140.565C94.0045 140.117 94.2542 139.725 94.5715 139.389C94.8935 139.048 95.2669 138.782 95.6915 138.591C96.1162 138.4 96.5689 138.304 97.0495 138.304C97.5955 138.304 98.0949 138.421 98.5475 138.654C99.0049 138.883 99.3922 139.198 99.7095 139.599C100.027 140 100.258 140.458 100.403 140.971C100.547 141.484 100.58 142.021 100.501 142.581H95.3835C95.4489 142.842 95.5562 143.078 95.7055 143.288C95.8549 143.493 96.0439 143.659 96.2725 143.785C96.5012 143.906 96.7602 143.969 97.0495 143.974C97.3482 143.979 97.6189 143.909 97.8615 143.764C98.1089 143.615 98.3142 143.414 98.4775 143.162L100.221 143.568C99.9359 144.189 99.5112 144.697 98.9465 145.094C98.3819 145.486 97.7495 145.682 97.0495 145.682ZM95.3275 141.3H98.7715C98.7202 141.02 98.6105 140.768 98.4425 140.544C98.2792 140.315 98.0762 140.133 97.8335 139.998C97.5909 139.863 97.3295 139.795 97.0495 139.795C96.7695 139.795 96.5105 139.863 96.2725 139.998C96.0345 140.129 95.8315 140.308 95.6635 140.537C95.5002 140.761 95.3882 141.015 95.3275 141.3ZM106.945 138.5H108.653V145.5H106.945L106.868 144.632C106.676 144.945 106.422 145.199 106.105 145.395C105.792 145.586 105.421 145.682 104.992 145.682C104.474 145.682 103.988 145.584 103.536 145.388C103.083 145.192 102.684 144.921 102.339 144.576C101.998 144.231 101.73 143.832 101.534 143.379C101.342 142.926 101.247 142.441 101.247 141.923C101.247 141.424 101.338 140.955 101.52 140.516C101.706 140.077 101.965 139.692 102.297 139.361C102.628 139.03 103.011 138.771 103.445 138.584C103.879 138.397 104.345 138.304 104.845 138.304C105.307 138.304 105.72 138.407 106.084 138.612C106.452 138.817 106.765 139.079 107.022 139.396L106.945 138.5ZM104.95 144.037C105.314 144.037 105.636 143.946 105.916 143.764C106.196 143.582 106.415 143.337 106.574 143.029C106.732 142.716 106.812 142.373 106.812 142C106.812 141.622 106.732 141.279 106.574 140.971C106.415 140.658 106.193 140.411 105.909 140.229C105.629 140.047 105.309 139.956 104.95 139.956C104.59 139.956 104.261 140.049 103.963 140.236C103.669 140.418 103.433 140.663 103.256 140.971C103.083 141.279 102.997 141.622 102.997 142C102.997 142.378 103.085 142.721 103.263 143.029C103.44 143.337 103.676 143.582 103.97 143.764C104.268 143.946 104.595 144.037 104.95 144.037ZM110.089 145.5V135H111.797V145.5H110.089ZM122.849 135.7H124.865L121.498 141.083V145.5H119.79V141.083L116.423 135.7H118.439L120.644 139.221L122.849 135.7ZM125.278 138.5H126.986V145.5H125.278V138.5ZM126.146 137.597C125.894 137.597 125.682 137.515 125.509 137.352C125.336 137.184 125.25 136.974 125.25 136.722C125.25 136.475 125.336 136.267 125.509 136.099C125.682 135.931 125.892 135.847 126.139 135.847C126.386 135.847 126.594 135.931 126.762 136.099C126.935 136.267 127.021 136.475 127.021 136.722C127.021 136.974 126.937 137.184 126.769 137.352C126.601 137.515 126.393 137.597 126.146 137.597ZM131.585 145.682C130.941 145.682 130.353 145.516 129.821 145.185C129.293 144.854 128.871 144.408 128.554 143.848C128.241 143.288 128.085 142.67 128.085 141.993C128.085 141.484 128.176 141.008 128.358 140.565C128.54 140.117 128.789 139.725 129.107 139.389C129.429 139.048 129.802 138.782 130.227 138.591C130.651 138.4 131.104 138.304 131.585 138.304C132.131 138.304 132.63 138.421 133.083 138.654C133.54 138.883 133.927 139.198 134.245 139.599C134.562 140 134.793 140.458 134.938 140.971C135.082 141.484 135.115 142.021 135.036 142.581H129.919C129.984 142.842 130.091 143.078 130.241 143.288C130.39 143.493 130.579 143.659 130.808 143.785C131.036 143.906 131.295 143.969 131.585 143.974C131.883 143.979 132.154 143.909 132.397 143.764C132.644 143.615 132.849 143.414 133.013 143.162L134.756 143.568C134.471 144.189 134.046 144.697 133.482 145.094C132.917 145.486 132.285 145.682 131.585 145.682ZM129.863 141.3H133.307C133.255 141.02 133.146 140.768 132.978 140.544C132.814 140.315 132.611 140.133 132.369 139.998C132.126 139.863 131.865 139.795 131.585 139.795C131.305 139.795 131.046 139.863 130.808 139.998C130.57 140.129 130.367 140.308 130.199 140.537C130.035 140.761 129.923 141.015 129.863 141.3ZM136.079 145.5V135H137.787V145.5H136.079ZM144.652 135H146.36V145.5H144.652V144.625C144.428 144.938 144.146 145.192 143.805 145.388C143.464 145.584 143.07 145.682 142.622 145.682C142.113 145.682 141.637 145.586 141.194 145.395C140.751 145.204 140.359 144.94 140.018 144.604C139.682 144.263 139.418 143.871 139.227 143.428C139.036 142.985 138.94 142.509 138.94 142C138.94 141.491 139.036 141.015 139.227 140.572C139.418 140.129 139.682 139.739 140.018 139.403C140.359 139.062 140.751 138.796 141.194 138.605C141.637 138.414 142.113 138.318 142.622 138.318C143.07 138.318 143.464 138.416 143.805 138.612C144.146 138.803 144.428 139.058 144.652 139.375V135ZM142.643 144.037C143.007 144.037 143.329 143.946 143.609 143.764C143.889 143.582 144.108 143.337 144.267 143.029C144.426 142.716 144.505 142.373 144.505 142C144.505 141.622 144.426 141.279 144.267 140.971C144.108 140.658 143.887 140.411 143.602 140.229C143.322 140.047 143.002 139.956 142.643 139.956C142.284 139.956 141.955 140.049 141.656 140.236C141.362 140.418 141.126 140.663 140.949 140.971C140.776 141.279 140.69 141.622 140.69 142C140.69 142.378 140.779 142.721 140.956 143.029C141.133 143.337 141.369 143.582 141.663 143.764C141.962 143.946 142.288 144.037 142.643 144.037Z" fill="white"/>
<path d="M61.8249 164.172C61.4169 163.776 61.0849 163.344 60.8289 162.876C60.5729 162.404 60.3849 161.898 60.2649 161.358C60.1449 160.818 60.0849 160.244 60.0849 159.636C60.0849 159.336 60.1109 159.008 60.1629 158.652C60.2149 158.296 60.2909 157.936 60.3909 157.572C60.4909 157.208 60.6109 156.862 60.7509 156.534C60.8949 156.206 61.0569 155.916 61.2369 155.664C61.4169 155.412 61.6129 155.224 61.8249 155.1H63.0729C62.8929 155.244 62.7189 155.442 62.5509 155.694C62.3829 155.942 62.2269 156.226 62.0829 156.546C61.9389 156.866 61.8109 157.204 61.6989 157.56C61.5869 157.916 61.4989 158.272 61.4349 158.628C61.3709 158.98 61.3369 159.316 61.3329 159.636C61.3409 160.264 61.4249 160.86 61.5849 161.424C61.7489 161.984 61.9609 162.498 62.2209 162.966C62.4849 163.43 62.7689 163.832 63.0729 164.172H61.8249ZM65.9394 156.138V157.5H67.6314V158.748H65.9394V163.5H64.6914V158.748H63.9774V157.5H64.6914V156.138C64.6914 155.81 64.7714 155.512 64.9314 155.244C65.0914 154.972 65.3054 154.756 65.5734 154.596C65.8454 154.436 66.1474 154.356 66.4794 154.356C66.7194 154.356 66.9534 154.404 67.1814 154.5C67.4094 154.596 67.6134 154.744 67.7934 154.944L66.8994 155.826C66.8554 155.754 66.7934 155.7 66.7134 155.664C66.6374 155.624 66.5594 155.604 66.4794 155.604C66.3314 155.604 66.2034 155.656 66.0954 155.76C65.9914 155.864 65.9394 155.99 65.9394 156.138ZM71.1272 163.656C70.5752 163.656 70.0712 163.514 69.6152 163.23C69.1632 162.946 68.8012 162.566 68.5292 162.09C68.2612 161.61 68.1272 161.08 68.1272 160.5C68.1272 160.06 68.2052 159.65 68.3612 159.27C68.5172 158.886 68.7312 158.55 69.0032 158.262C69.2792 157.97 69.5992 157.742 69.9632 157.578C70.3272 157.414 70.7152 157.332 71.1272 157.332C71.5872 157.332 72.0092 157.428 72.3932 157.62C72.7772 157.808 73.1052 158.07 73.3772 158.406C73.6492 158.738 73.8492 159.122 73.9772 159.558C74.1052 159.99 74.1432 160.45 74.0912 160.938H69.4652C69.5172 161.214 69.6172 161.464 69.7652 161.688C69.9172 161.908 70.1092 162.082 70.3412 162.21C70.5772 162.338 70.8392 162.404 71.1272 162.408C71.4312 162.408 71.7072 162.332 71.9552 162.18C72.2072 162.028 72.4132 161.818 72.5732 161.55L73.8392 161.844C73.5992 162.376 73.2372 162.812 72.7532 163.152C72.2692 163.488 71.7272 163.656 71.1272 163.656ZM69.4232 159.984H72.8312C72.7912 159.696 72.6892 159.436 72.5252 159.204C72.3652 158.968 72.1632 158.782 71.9192 158.646C71.6792 158.506 71.4152 158.436 71.1272 158.436C70.8432 158.436 70.5792 158.504 70.3352 158.64C70.0952 158.776 69.8952 158.962 69.7352 159.198C69.5792 159.43 69.4752 159.692 69.4232 159.984ZM77.7131 163.656C77.1611 163.656 76.6571 163.514 76.2011 163.23C75.7491 162.946 75.3871 162.566 75.1151 162.09C74.8471 161.61 74.7131 161.08 74.7131 160.5C74.7131 160.06 74.7911 159.65 74.9471 159.27C75.1031 158.886 75.3171 158.55 75.5891 158.262C75.8651 157.97 76.1851 157.742 76.5491 157.578C76.9131 157.414 77.3011 157.332 77.7131 157.332C78.1731 157.332 78.5951 157.428 78.9791 157.62C79.3631 157.808 79.6911 158.07 79.9631 158.406C80.2351 158.738 80.4351 159.122 80.5631 159.558C80.6911 159.99 80.7291 160.45 80.6771 160.938H76.0511C76.1031 161.214 76.2031 161.464 76.3511 161.688C76.5031 161.908 76.6951 162.082 76.9271 162.21C77.1631 162.338 77.4251 162.404 77.7131 162.408C78.0171 162.408 78.2931 162.332 78.5411 162.18C78.7931 162.028 78.9991 161.818 79.1591 161.55L80.4251 161.844C80.1851 162.376 79.8231 162.812 79.3391 163.152C78.8551 163.488 78.3131 163.656 77.7131 163.656ZM76.0091 159.984H79.4171C79.3771 159.696 79.2751 159.436 79.1111 159.204C78.9511 158.968 78.7491 158.782 78.5051 158.646C78.2651 158.506 78.0011 158.436 77.7131 158.436C77.4291 158.436 77.1651 158.504 76.9211 158.64C76.6811 158.776 76.4811 158.962 76.3211 159.198C76.1651 159.43 76.0611 159.692 76.0091 159.984ZM83.9123 162.9V160.524H81.5363V159.276H83.9123V156.9H85.1603V159.276H87.5363V160.524H85.1603V162.9H83.9123ZM89.9852 166.5H88.7372V157.5H89.9852V158.382C90.1852 158.074 90.4412 157.824 90.7532 157.632C91.0652 157.44 91.4332 157.344 91.8572 157.344C92.2932 157.344 92.7012 157.426 93.0812 157.59C93.4652 157.754 93.8012 157.982 94.0892 158.274C94.3772 158.562 94.6032 158.896 94.7672 159.276C94.9312 159.656 95.0132 160.064 95.0132 160.5C95.0132 160.936 94.9312 161.346 94.7672 161.73C94.6032 162.114 94.3772 162.452 94.0892 162.744C93.8012 163.032 93.4652 163.258 93.0812 163.422C92.7012 163.586 92.2932 163.668 91.8572 163.668C91.4332 163.668 91.0652 163.572 90.7532 163.38C90.4412 163.184 90.1852 162.934 89.9852 162.63V166.5ZM91.8452 158.55C91.4972 158.55 91.1912 158.638 90.9272 158.814C90.6632 158.99 90.4572 159.226 90.3092 159.522C90.1612 159.814 90.0872 160.14 90.0872 160.5C90.0872 160.86 90.1612 161.188 90.3092 161.484C90.4572 161.78 90.6632 162.016 90.9272 162.192C91.1912 162.368 91.4972 162.456 91.8452 162.456C92.1892 162.456 92.5052 162.37 92.7932 162.198C93.0812 162.022 93.3112 161.786 93.4832 161.49C93.6552 161.194 93.7412 160.864 93.7412 160.5C93.7412 160.144 93.6552 159.818 93.4832 159.522C93.3152 159.226 93.0872 158.99 92.7992 158.814C92.5112 158.638 92.1932 158.55 91.8452 158.55ZM95.9911 163.5V157.5H97.2391V158.136C97.4471 157.888 97.7031 157.692 98.0071 157.548C98.3111 157.404 98.6391 157.332 98.9911 157.332C99.2151 157.332 99.4371 157.362 99.6571 157.422L99.1591 158.682C99.0031 158.622 98.8471 158.592 98.6911 158.592C98.4271 158.592 98.1851 158.658 97.9651 158.79C97.7451 158.918 97.5691 159.092 97.4371 159.312C97.3051 159.532 97.2391 159.776 97.2391 160.044V163.5H95.9911ZM102.709 163.656C102.157 163.656 101.653 163.514 101.197 163.23C100.745 162.946 100.383 162.566 100.111 162.09C99.8432 161.61 99.7092 161.08 99.7092 160.5C99.7092 160.06 99.7872 159.65 99.9432 159.27C100.099 158.886 100.313 158.55 100.585 158.262C100.861 157.97 101.181 157.742 101.545 157.578C101.909 157.414 102.297 157.332 102.709 157.332C103.169 157.332 103.591 157.428 103.975 157.62C104.359 157.808 104.687 158.07 104.959 158.406C105.231 158.738 105.431 159.122 105.559 159.558C105.687 159.99 105.725 160.45 105.673 160.938H101.047C101.099 161.214 101.199 161.464 101.347 161.688C101.499 161.908 101.691 162.082 101.923 162.21C102.159 162.338 102.421 162.404 102.709 162.408C103.013 162.408 103.289 162.332 103.537 162.18C103.789 162.028 103.995 161.818 104.155 161.55L105.421 161.844C105.181 162.376 104.819 162.812 104.335 163.152C103.851 163.488 103.309 163.656 102.709 163.656ZM101.005 159.984H104.413C104.373 159.696 104.271 159.436 104.107 159.204C103.947 158.968 103.745 158.782 103.501 158.646C103.261 158.506 102.997 158.436 102.709 158.436C102.425 158.436 102.161 158.504 101.917 158.64C101.677 158.776 101.477 158.962 101.317 159.198C101.161 159.43 101.057 159.692 101.005 159.984ZM106.667 163.5V157.5H107.915V158.136C108.123 157.888 108.377 157.692 108.677 157.548C108.981 157.404 109.309 157.332 109.661 157.332C110.089 157.332 110.483 157.436 110.843 157.644C111.203 157.848 111.489 158.12 111.701 158.46C111.913 158.12 112.195 157.848 112.547 157.644C112.903 157.436 113.295 157.332 113.723 157.332C114.167 157.332 114.571 157.44 114.935 157.656C115.299 157.872 115.589 158.162 115.805 158.526C116.021 158.89 116.129 159.294 116.129 159.738V163.5H114.881V160.056C114.881 159.792 114.817 159.55 114.689 159.33C114.561 159.11 114.389 158.932 114.173 158.796C113.957 158.66 113.717 158.592 113.453 158.592C113.189 158.592 112.949 158.656 112.733 158.784C112.517 158.912 112.345 159.086 112.217 159.306C112.089 159.526 112.025 159.776 112.025 160.056V163.5H110.777V160.056C110.777 159.776 110.713 159.526 110.585 159.306C110.457 159.086 110.283 158.912 110.063 158.784C109.847 158.656 109.607 158.592 109.343 158.592C109.083 158.592 108.843 158.66 108.623 158.796C108.407 158.932 108.235 159.11 108.107 159.33C107.979 159.55 107.915 159.792 107.915 160.056V163.5H106.667ZM117.331 157.5H118.579V163.5H117.331V157.5ZM117.967 156.63C117.775 156.63 117.615 156.568 117.487 156.444C117.359 156.32 117.295 156.164 117.295 155.976C117.295 155.792 117.359 155.638 117.487 155.514C117.615 155.386 117.773 155.322 117.961 155.322C118.145 155.322 118.301 155.386 118.429 155.514C118.557 155.638 118.621 155.792 118.621 155.976C118.621 156.164 118.557 156.32 118.429 156.444C118.305 156.568 118.151 156.63 117.967 156.63ZM119.775 161.25V157.5H121.023V160.944C121.023 161.212 121.089 161.456 121.221 161.676C121.353 161.896 121.529 162.072 121.749 162.204C121.969 162.332 122.211 162.396 122.475 162.396C122.743 162.396 122.985 162.332 123.201 162.204C123.421 162.072 123.595 161.896 123.723 161.676C123.855 161.456 123.921 161.212 123.921 160.944V157.5H125.169L125.175 163.5H123.927L123.921 162.852C123.717 163.1 123.463 163.296 123.159 163.44C122.855 163.584 122.529 163.656 122.181 163.656C121.737 163.656 121.333 163.548 120.969 163.332C120.605 163.116 120.315 162.826 120.099 162.462C119.883 162.098 119.775 161.694 119.775 161.25ZM126.378 163.5V157.5H127.626V158.136C127.834 157.888 128.088 157.692 128.388 157.548C128.692 157.404 129.02 157.332 129.372 157.332C129.8 157.332 130.194 157.436 130.554 157.644C130.914 157.848 131.2 158.12 131.412 158.46C131.624 158.12 131.906 157.848 132.258 157.644C132.614 157.436 133.006 157.332 133.434 157.332C133.878 157.332 134.282 157.44 134.646 157.656C135.01 157.872 135.3 158.162 135.516 158.526C135.732 158.89 135.84 159.294 135.84 159.738V163.5H134.592V160.056C134.592 159.792 134.528 159.55 134.4 159.33C134.272 159.11 134.1 158.932 133.884 158.796C133.668 158.66 133.428 158.592 133.164 158.592C132.9 158.592 132.66 158.656 132.444 158.784C132.228 158.912 132.056 159.086 131.928 159.306C131.8 159.526 131.736 159.776 131.736 160.056V163.5H130.488V160.056C130.488 159.776 130.424 159.526 130.296 159.306C130.168 159.086 129.994 158.912 129.774 158.784C129.558 158.656 129.318 158.592 129.054 158.592C128.794 158.592 128.554 158.66 128.334 158.796C128.118 158.932 127.946 159.11 127.818 159.33C127.69 159.55 127.626 159.792 127.626 160.056V163.5H126.378ZM136.922 164.172C137.226 163.832 137.508 163.43 137.768 162.966C138.032 162.498 138.244 161.984 138.404 161.424C138.568 160.86 138.654 160.264 138.662 159.636C138.658 159.316 138.624 158.98 138.56 158.628C138.496 158.272 138.408 157.916 138.296 157.56C138.184 157.204 138.056 156.866 137.912 156.546C137.768 156.226 137.612 155.942 137.444 155.694C137.276 155.442 137.102 155.244 136.922 155.1H138.17C138.382 155.224 138.576 155.412 138.752 155.664C138.932 155.916 139.094 156.206 139.238 156.534C139.382 156.862 139.504 157.208 139.604 157.572C139.704 157.936 139.78 158.296 139.832 158.652C139.884 159.008 139.91 159.336 139.91 159.636C139.91 160.244 139.85 160.818 139.73 161.358C139.614 161.898 139.428 162.404 139.172 162.876C138.916 163.344 138.582 163.776 138.17 164.172H136.922Z" fill="#797E8B"/>
<rect width="64" height="55" transform="translate(408 150)" fill="#1E212A"/>
<path d="M401.403 173.5L403.965 169.986L401.424 166.493H403.531L405.015 168.53L406.506 166.493H408.613L406.072 169.986L408.634 173.5H406.527L405.015 171.428L403.51 173.5H401.403ZM410.989 173.5V165.408H409.757L410.219 163.7H412.697V173.5H410.989ZM418.021 173.5V163.7H421.78C422.312 163.7 422.793 163.833 423.222 164.099C423.652 164.365 423.992 164.722 424.244 165.17C424.496 165.613 424.622 166.106 424.622 166.647C424.622 167.09 424.541 167.499 424.377 167.872C424.219 168.241 423.995 168.56 423.705 168.831C423.421 169.102 423.092 169.307 422.718 169.447L425.063 173.5H423.096L420.828 169.601H419.729V173.5H418.021ZM419.729 167.893H421.584C421.827 167.893 422.049 167.832 422.249 167.711C422.45 167.59 422.611 167.426 422.732 167.221C422.854 167.016 422.914 166.787 422.914 166.535C422.914 166.278 422.854 166.047 422.732 165.842C422.611 165.637 422.45 165.473 422.249 165.352C422.049 165.231 421.827 165.17 421.584 165.17H419.729V167.893ZM429.004 173.682C428.36 173.682 427.772 173.516 427.24 173.185C426.712 172.854 426.29 172.408 425.973 171.848C425.66 171.288 425.504 170.67 425.504 169.993C425.504 169.484 425.595 169.008 425.777 168.565C425.959 168.117 426.208 167.725 426.526 167.389C426.848 167.048 427.221 166.782 427.646 166.591C428.07 166.4 428.523 166.304 429.004 166.304C429.55 166.304 430.049 166.421 430.502 166.654C430.959 166.883 431.346 167.198 431.664 167.599C431.981 168 432.212 168.458 432.357 168.971C432.501 169.484 432.534 170.021 432.455 170.581H427.338C427.403 170.842 427.51 171.078 427.66 171.288C427.809 171.493 427.998 171.659 428.227 171.785C428.455 171.906 428.714 171.969 429.004 171.974C429.302 171.979 429.573 171.909 429.816 171.764C430.063 171.615 430.268 171.414 430.432 171.162L432.175 171.568C431.89 172.189 431.465 172.697 430.901 173.094C430.336 173.486 429.704 173.682 429.004 173.682ZM427.282 169.3H430.726C430.674 169.02 430.565 168.768 430.397 168.544C430.233 168.315 430.03 168.133 429.788 167.998C429.545 167.863 429.284 167.795 429.004 167.795C428.724 167.795 428.465 167.863 428.227 167.998C427.989 168.129 427.786 168.308 427.618 168.537C427.454 168.761 427.342 169.015 427.282 169.3ZM438.899 166.5H440.607V173.5H438.899L438.822 172.632C438.631 172.945 438.376 173.199 438.059 173.395C437.746 173.586 437.375 173.682 436.946 173.682C436.428 173.682 435.943 173.584 435.49 173.388C435.037 173.192 434.638 172.921 434.293 172.576C433.952 172.231 433.684 171.832 433.488 171.379C433.297 170.926 433.201 170.441 433.201 169.923C433.201 169.424 433.292 168.955 433.474 168.516C433.661 168.077 433.92 167.692 434.251 167.361C434.582 167.03 434.965 166.771 435.399 166.584C435.833 166.397 436.3 166.304 436.799 166.304C437.261 166.304 437.674 166.407 438.038 166.612C438.407 166.817 438.719 167.079 438.976 167.396L438.899 166.5ZM436.904 172.037C437.268 172.037 437.59 171.946 437.87 171.764C438.15 171.582 438.369 171.337 438.528 171.029C438.687 170.716 438.766 170.373 438.766 170C438.766 169.622 438.687 169.279 438.528 168.971C438.369 168.658 438.148 168.411 437.863 168.229C437.583 168.047 437.263 167.956 436.904 167.956C436.545 167.956 436.216 168.049 435.917 168.236C435.623 168.418 435.387 168.663 435.21 168.971C435.037 169.279 434.951 169.622 434.951 170C434.951 170.378 435.04 170.721 435.217 171.029C435.394 171.337 435.63 171.582 435.924 171.764C436.223 171.946 436.549 172.037 436.904 172.037ZM442.043 173.5V163H443.751V173.5H442.043ZM454.803 163.7H456.819L453.452 169.083V173.5H451.744V169.083L448.377 163.7H450.393L452.598 167.221L454.803 163.7ZM457.232 166.5H458.94V173.5H457.232V166.5ZM458.1 165.597C457.848 165.597 457.636 165.515 457.463 165.352C457.291 165.184 457.204 164.974 457.204 164.722C457.204 164.475 457.291 164.267 457.463 164.099C457.636 163.931 457.846 163.847 458.093 163.847C458.341 163.847 458.548 163.931 458.716 164.099C458.889 164.267 458.975 164.475 458.975 164.722C458.975 164.974 458.891 165.184 458.723 165.352C458.555 165.515 458.348 165.597 458.1 165.597ZM463.539 173.682C462.895 173.682 462.307 173.516 461.775 173.185C461.247 172.854 460.825 172.408 460.508 171.848C460.195 171.288 460.039 170.67 460.039 169.993C460.039 169.484 460.13 169.008 460.312 168.565C460.494 168.117 460.743 167.725 461.061 167.389C461.383 167.048 461.756 166.782 462.181 166.591C462.605 166.4 463.058 166.304 463.539 166.304C464.085 166.304 464.584 166.421 465.037 166.654C465.494 166.883 465.881 167.198 466.199 167.599C466.516 168 466.747 168.458 466.892 168.971C467.036 169.484 467.069 170.021 466.99 170.581H461.873C461.938 170.842 462.045 171.078 462.195 171.288C462.344 171.493 462.533 171.659 462.762 171.785C462.99 171.906 463.249 171.969 463.539 171.974C463.837 171.979 464.108 171.909 464.351 171.764C464.598 171.615 464.803 171.414 464.967 171.162L466.71 171.568C466.425 172.189 466 172.697 465.436 173.094C464.871 173.486 464.239 173.682 463.539 173.682ZM461.817 169.3H465.261C465.209 169.02 465.1 168.768 464.932 168.544C464.768 168.315 464.565 168.133 464.323 167.998C464.08 167.863 463.819 167.795 463.539 167.795C463.259 167.795 463 167.863 462.762 167.998C462.524 168.129 462.321 168.308 462.153 168.537C461.989 168.761 461.877 169.015 461.817 169.3ZM468.033 173.5V163H469.741V173.5H468.033ZM476.606 163H478.314V173.5H476.606V172.625C476.382 172.938 476.1 173.192 475.759 173.388C475.419 173.584 475.024 173.682 474.576 173.682C474.068 173.682 473.592 173.586 473.148 173.395C472.705 173.204 472.313 172.94 471.972 172.604C471.636 172.263 471.373 171.871 471.181 171.428C470.99 170.985 470.894 170.509 470.894 170C470.894 169.491 470.99 169.015 471.181 168.572C471.373 168.129 471.636 167.739 471.972 167.403C472.313 167.062 472.705 166.796 473.148 166.605C473.592 166.414 474.068 166.318 474.576 166.318C475.024 166.318 475.419 166.416 475.759 166.612C476.1 166.803 476.382 167.058 476.606 167.375V163ZM474.597 172.037C474.961 172.037 475.283 171.946 475.563 171.764C475.843 171.582 476.063 171.337 476.221 171.029C476.38 170.716 476.459 170.373 476.459 170C476.459 169.622 476.38 169.279 476.221 168.971C476.063 168.658 475.841 168.411 475.556 168.229C475.276 168.047 474.957 167.956 474.597 167.956C474.238 167.956 473.909 168.049 473.61 168.236C473.316 168.418 473.081 168.663 472.903 168.971C472.731 169.279 472.644 169.622 472.644 170C472.644 170.378 472.733 170.721 472.91 171.029C473.088 171.337 473.323 171.582 473.617 171.764C473.916 171.946 474.243 172.037 474.597 172.037Z" fill="white"/>
<path d="M429.458 192.172C429.05 191.776 428.718 191.344 428.462 190.876C428.206 190.404 428.018 189.898 427.898 189.358C427.778 188.818 427.718 188.244 427.718 187.636C427.718 187.336 427.744 187.008 427.796 186.652C427.848 186.296 427.924 185.936 428.024 185.572C428.124 185.208 428.244 184.862 428.384 184.534C428.528 184.206 428.69 183.916 428.87 183.664C429.05 183.412 429.246 183.224 429.458 183.1H430.706C430.526 183.244 430.352 183.442 430.184 183.694C430.016 183.942 429.86 184.226 429.716 184.546C429.572 184.866 429.444 185.204 429.332 185.56C429.22 185.916 429.132 186.272 429.068 186.628C429.004 186.98 428.97 187.316 428.966 187.636C428.974 188.264 429.058 188.86 429.218 189.424C429.382 189.984 429.594 190.498 429.854 190.966C430.118 191.43 430.402 191.832 430.706 192.172H429.458ZM433.572 184.138V185.5H435.264V186.748H433.572V191.5H432.324V186.748H431.61V185.5H432.324V184.138C432.324 183.81 432.404 183.512 432.564 183.244C432.724 182.972 432.938 182.756 433.206 182.596C433.478 182.436 433.78 182.356 434.112 182.356C434.352 182.356 434.586 182.404 434.814 182.5C435.042 182.596 435.246 182.744 435.426 182.944L434.532 183.826C434.488 183.754 434.426 183.7 434.346 183.664C434.27 183.624 434.192 183.604 434.112 183.604C433.964 183.604 433.836 183.656 433.728 183.76C433.624 183.864 433.572 183.99 433.572 184.138ZM438.76 191.656C438.208 191.656 437.704 191.514 437.248 191.23C436.796 190.946 436.434 190.566 436.162 190.09C435.894 189.61 435.76 189.08 435.76 188.5C435.76 188.06 435.838 187.65 435.994 187.27C436.15 186.886 436.364 186.55 436.636 186.262C436.912 185.97 437.232 185.742 437.596 185.578C437.96 185.414 438.348 185.332 438.76 185.332C439.22 185.332 439.642 185.428 440.026 185.62C440.41 185.808 440.738 186.07 441.01 186.406C441.282 186.738 441.482 187.122 441.61 187.558C441.738 187.99 441.776 188.45 441.724 188.938H437.098C437.15 189.214 437.25 189.464 437.398 189.688C437.55 189.908 437.742 190.082 437.974 190.21C438.21 190.338 438.472 190.404 438.76 190.408C439.064 190.408 439.34 190.332 439.588 190.18C439.84 190.028 440.046 189.818 440.206 189.55L441.472 189.844C441.232 190.376 440.87 190.812 440.386 191.152C439.902 191.488 439.36 191.656 438.76 191.656ZM437.056 187.984H440.464C440.424 187.696 440.322 187.436 440.158 187.204C439.998 186.968 439.796 186.782 439.552 186.646C439.312 186.506 439.048 186.436 438.76 186.436C438.476 186.436 438.212 186.504 437.968 186.64C437.728 186.776 437.528 186.962 437.368 187.198C437.212 187.43 437.108 187.692 437.056 187.984ZM445.346 191.656C444.794 191.656 444.29 191.514 443.834 191.23C443.382 190.946 443.02 190.566 442.748 190.09C442.48 189.61 442.346 189.08 442.346 188.5C442.346 188.06 442.424 187.65 442.58 187.27C442.736 186.886 442.95 186.55 443.222 186.262C443.498 185.97 443.818 185.742 444.182 185.578C444.546 185.414 444.934 185.332 445.346 185.332C445.806 185.332 446.228 185.428 446.612 185.62C446.996 185.808 447.324 186.07 447.596 186.406C447.868 186.738 448.068 187.122 448.196 187.558C448.324 187.99 448.362 188.45 448.31 188.938H443.684C443.736 189.214 443.836 189.464 443.984 189.688C444.136 189.908 444.328 190.082 444.56 190.21C444.796 190.338 445.058 190.404 445.346 190.408C445.65 190.408 445.926 190.332 446.174 190.18C446.426 190.028 446.632 189.818 446.792 189.55L448.058 189.844C447.818 190.376 447.456 190.812 446.972 191.152C446.488 191.488 445.946 191.656 445.346 191.656ZM443.642 187.984H447.05C447.01 187.696 446.908 187.436 446.744 187.204C446.584 186.968 446.382 186.782 446.138 186.646C445.898 186.506 445.634 186.436 445.346 186.436C445.062 186.436 444.798 186.504 444.554 186.64C444.314 186.776 444.114 186.962 443.954 187.198C443.798 187.43 443.694 187.692 443.642 187.984ZM449.289 192.172C449.593 191.832 449.875 191.43 450.135 190.966C450.399 190.498 450.611 189.984 450.771 189.424C450.935 188.86 451.021 188.264 451.029 187.636C451.025 187.316 450.991 186.98 450.927 186.628C450.863 186.272 450.775 185.916 450.663 185.56C450.551 185.204 450.423 184.866 450.279 184.546C450.135 184.226 449.979 183.942 449.811 183.694C449.643 183.442 449.469 183.244 449.289 183.1H450.537C450.749 183.224 450.943 183.412 451.119 183.664C451.299 183.916 451.461 184.206 451.605 184.534C451.749 184.862 451.871 185.208 451.971 185.572C452.071 185.936 452.147 186.296 452.199 186.652C452.251 187.008 452.277 187.336 452.277 187.636C452.277 188.244 452.217 188.818 452.097 189.358C451.981 189.898 451.795 190.404 451.539 190.876C451.283 191.344 450.949 191.776 450.537 192.172H449.289Z" fill="#797E8B"/>
<defs>
<clipPath id="clip0_5116_16843">
<rect width="16.3333" height="16.3333" fill="white" transform="translate(409.334 283.833)"/>
</clipPath>
<clipPath id="clip1_5116_16843">
<rect width="16.3333" height="16.3333" fill="white" transform="translate(89.334 283.833)"/>
</clipPath>
</defs>
</svg>
