<svg width="325" height="240" viewBox="0 0 325 240" fill="none" xmlns="http://www.w3.org/2000/svg">
<g clip-path="url(#clip0_4600_12341)">
<rect width="325" height="240" rx="24" fill="#2B2E37"/>
<line x1="43" y1="20.5" x2="43" y2="219.5" stroke="#383B45" stroke-linecap="round" stroke-dasharray="2 2"/>
<line x1="83" y1="20.5" x2="83" y2="219.5" stroke="#383B45" stroke-linecap="round" stroke-dasharray="2 2"/>
<line x1="123" y1="20.5" x2="123" y2="219.5" stroke="#383B45" stroke-linecap="round" stroke-dasharray="2 2"/>
<line x1="163" y1="20.5" x2="163" y2="219.5" stroke="#383B45" stroke-linecap="round" stroke-dasharray="2 2"/>
<line x1="203" y1="20.5" x2="203" y2="219.5" stroke="#383B45" stroke-linecap="round" stroke-dasharray="2 2"/>
<line x1="243" y1="20.5" x2="243" y2="219.5" stroke="#383B45" stroke-linecap="round" stroke-dasharray="2 2"/>
<line x1="283" y1="20.5" x2="283" y2="219.5" stroke="#383B45" stroke-linecap="round" stroke-dasharray="2 2"/>
<line x1="-2.18557e-08" y1="179.75" x2="325" y2="179.75" stroke="#797E8B" stroke-width="0.5"/>
<line x1="-2.18557e-08" y1="59.75" x2="325" y2="59.75" stroke="#797E8B" stroke-width="0.5"/>
<path d="M-18.75 177.25C20.25 189.25 71.9957 157.34 98.75 144.75C124.25 132.75 151.74 125.588 188.25 148.5C237.25 179.25 265.141 102 277.75 72.9998C289.707 45.4998 308.8 16.6498 335 39.2498" stroke="#FB5B0D" stroke-width="2" stroke-linecap="round"/>
<path d="M34.5191 26.184H37.0791V27.016H34.5191V26.184ZM38.5505 29V24.232H37.8825L38.1105 23.4H39.3825V29H38.5505ZM40.7794 29.104C40.6568 29.104 40.5528 29.0613 40.4674 28.976C40.3848 28.8907 40.3434 28.7867 40.3434 28.664C40.3434 28.544 40.3848 28.4413 40.4674 28.356C40.5528 28.2707 40.6568 28.228 40.7794 28.228C40.9021 28.228 41.0061 28.2707 41.0914 28.356C41.1768 28.4413 41.2194 28.544 41.2194 28.664C41.2194 28.7867 41.1768 28.8907 41.0914 28.976C41.0061 29.0613 40.9021 29.104 40.7794 29.104ZM43.8751 29.104C43.5205 29.104 43.1991 29.0187 42.9111 28.848C42.6258 28.6747 42.3991 28.4453 42.2311 28.16C42.0658 27.872 41.9831 27.5573 41.9831 27.216H42.8151C42.8151 27.4107 42.8631 27.588 42.9591 27.748C43.0551 27.908 43.1831 28.036 43.3431 28.132C43.5031 28.2253 43.6805 28.272 43.8751 28.272C44.0671 28.272 44.2431 28.2253 44.4031 28.132C44.5631 28.036 44.6911 27.908 44.7871 27.748C44.8831 27.588 44.9311 27.4107 44.9311 27.216C44.9311 27.0213 44.8871 26.844 44.7991 26.684C44.7111 26.5213 44.5791 26.392 44.4031 26.296C44.2271 26.1973 44.0031 26.148 43.7311 26.148H42.3191L42.8871 23.4H45.5951V24.232H43.5631L43.3431 25.316L43.8271 25.324C44.2085 25.332 44.5431 25.42 44.8311 25.588C45.1218 25.7533 45.3498 25.9773 45.5151 26.26C45.6805 26.54 45.7631 26.8587 45.7631 27.216C45.7631 27.4747 45.7138 27.7187 45.6151 27.948C45.5165 28.1747 45.3805 28.3747 45.2071 28.548C45.0365 28.7213 44.8365 28.8573 44.6071 28.956C44.3805 29.0547 44.1365 29.104 43.8751 29.104ZM47.0022 29L50.2342 23.4H51.1942L47.9622 29H47.0022ZM47.6782 25.748C47.4755 25.748 47.2889 25.6987 47.1182 25.6C46.9502 25.4987 46.8155 25.364 46.7142 25.196C46.6129 25.0253 46.5622 24.8373 46.5622 24.632C46.5622 24.4187 46.6129 24.228 46.7142 24.06C46.8182 23.892 46.9542 23.76 47.1222 23.664C47.2929 23.5653 47.4782 23.516 47.6782 23.516C47.8835 23.516 48.0702 23.5667 48.2382 23.668C48.4062 23.7667 48.5409 23.9 48.6422 24.068C48.7435 24.236 48.7942 24.424 48.7942 24.632C48.7942 24.8427 48.7422 25.032 48.6382 25.2C48.5369 25.368 48.4009 25.5013 48.2302 25.6C48.0622 25.6987 47.8782 25.748 47.6782 25.748ZM47.6782 25.16C47.8275 25.16 47.9529 25.1093 48.0542 25.008C48.1555 24.904 48.2062 24.7787 48.2062 24.632C48.2062 24.4827 48.1555 24.3573 48.0542 24.256C47.9529 24.152 47.8275 24.1 47.6782 24.1C47.5315 24.1 47.4062 24.152 47.3022 24.256C47.2009 24.3573 47.1502 24.4827 47.1502 24.632C47.1502 24.7787 47.2009 24.904 47.3022 25.008C47.4062 25.1093 47.5315 25.16 47.6782 25.16ZM50.5262 28.892C50.3182 28.892 50.1289 28.84 49.9582 28.736C49.7902 28.6293 49.6555 28.492 49.5542 28.324C49.4555 28.1533 49.4062 27.9693 49.4062 27.772C49.4062 27.564 49.4582 27.376 49.5622 27.208C49.6662 27.0373 49.8022 26.9027 49.9702 26.804C50.1409 26.7027 50.3262 26.652 50.5262 26.652C50.7369 26.652 50.9262 26.704 51.0942 26.808C51.2622 26.912 51.3955 27.0493 51.4942 27.22C51.5929 27.3907 51.6422 27.5747 51.6422 27.772C51.6422 27.9773 51.5915 28.1653 51.4902 28.336C51.3915 28.504 51.2569 28.6387 51.0862 28.74C50.9182 28.8413 50.7315 28.892 50.5262 28.892ZM50.5262 28.304C50.6702 28.304 50.7942 28.252 50.8982 28.148C51.0022 28.044 51.0542 27.9187 51.0542 27.772C51.0542 27.6253 51.0022 27.5 50.8982 27.396C50.7942 27.292 50.6702 27.24 50.5262 27.24C50.3795 27.24 50.2529 27.292 50.1462 27.396C50.0422 27.5 49.9902 27.6253 49.9902 27.772C49.9902 27.9187 50.0422 28.044 50.1462 28.148C50.2529 28.252 50.3795 28.304 50.5262 28.304Z" fill="white"/>
<path d="M34.0191 214.184H36.5791V215.016H34.0191V214.184ZM38.0505 217V212.232H37.3825L37.6105 211.4H38.8825V217H38.0505ZM40.2794 217.104C40.1568 217.104 40.0528 217.061 39.9674 216.976C39.8848 216.891 39.8434 216.787 39.8434 216.664C39.8434 216.544 39.8848 216.441 39.9674 216.356C40.0528 216.271 40.1568 216.228 40.2794 216.228C40.4021 216.228 40.5061 216.271 40.5914 216.356C40.6768 216.441 40.7194 216.544 40.7194 216.664C40.7194 216.787 40.6768 216.891 40.5914 216.976C40.5061 217.061 40.4021 217.104 40.2794 217.104ZM43.3751 217.104C43.0205 217.104 42.6991 217.019 42.4111 216.848C42.1258 216.675 41.8991 216.445 41.7311 216.16C41.5658 215.872 41.4831 215.557 41.4831 215.216H42.3151C42.3151 215.411 42.3631 215.588 42.4591 215.748C42.5551 215.908 42.6831 216.036 42.8431 216.132C43.0031 216.225 43.1805 216.272 43.3751 216.272C43.5671 216.272 43.7431 216.225 43.9031 216.132C44.0631 216.036 44.1911 215.908 44.2871 215.748C44.3831 215.588 44.4311 215.411 44.4311 215.216C44.4311 215.021 44.3871 214.844 44.2991 214.684C44.2111 214.521 44.0791 214.392 43.9031 214.296C43.7271 214.197 43.5031 214.148 43.2311 214.148H41.8191L42.3871 211.4H45.0951V212.232H43.0631L42.8431 213.316L43.3271 213.324C43.7085 213.332 44.0431 213.42 44.3311 213.588C44.6218 213.753 44.8498 213.977 45.0151 214.26C45.1805 214.54 45.2631 214.859 45.2631 215.216C45.2631 215.475 45.2138 215.719 45.1151 215.948C45.0165 216.175 44.8805 216.375 44.7071 216.548C44.5365 216.721 44.3365 216.857 44.1071 216.956C43.8805 217.055 43.6365 217.104 43.3751 217.104ZM46.5022 217L49.7342 211.4H50.6942L47.4622 217H46.5022ZM47.1782 213.748C46.9755 213.748 46.7889 213.699 46.6182 213.6C46.4502 213.499 46.3155 213.364 46.2142 213.196C46.1129 213.025 46.0622 212.837 46.0622 212.632C46.0622 212.419 46.1129 212.228 46.2142 212.06C46.3182 211.892 46.4542 211.76 46.6222 211.664C46.7929 211.565 46.9782 211.516 47.1782 211.516C47.3835 211.516 47.5702 211.567 47.7382 211.668C47.9062 211.767 48.0409 211.9 48.1422 212.068C48.2435 212.236 48.2942 212.424 48.2942 212.632C48.2942 212.843 48.2422 213.032 48.1382 213.2C48.0369 213.368 47.9009 213.501 47.7302 213.6C47.5622 213.699 47.3782 213.748 47.1782 213.748ZM47.1782 213.16C47.3275 213.16 47.4529 213.109 47.5542 213.008C47.6555 212.904 47.7062 212.779 47.7062 212.632C47.7062 212.483 47.6555 212.357 47.5542 212.256C47.4529 212.152 47.3275 212.1 47.1782 212.1C47.0315 212.1 46.9062 212.152 46.8022 212.256C46.7009 212.357 46.6502 212.483 46.6502 212.632C46.6502 212.779 46.7009 212.904 46.8022 213.008C46.9062 213.109 47.0315 213.16 47.1782 213.16ZM50.0262 216.892C49.8182 216.892 49.6289 216.84 49.4582 216.736C49.2902 216.629 49.1555 216.492 49.0542 216.324C48.9555 216.153 48.9062 215.969 48.9062 215.772C48.9062 215.564 48.9582 215.376 49.0622 215.208C49.1662 215.037 49.3022 214.903 49.4702 214.804C49.6409 214.703 49.8262 214.652 50.0262 214.652C50.2369 214.652 50.4262 214.704 50.5942 214.808C50.7622 214.912 50.8955 215.049 50.9942 215.22C51.0929 215.391 51.1422 215.575 51.1422 215.772C51.1422 215.977 51.0915 216.165 50.9902 216.336C50.8915 216.504 50.7569 216.639 50.5862 216.74C50.4182 216.841 50.2315 216.892 50.0262 216.892ZM50.0262 216.304C50.1702 216.304 50.2942 216.252 50.3982 216.148C50.5022 216.044 50.5542 215.919 50.5542 215.772C50.5542 215.625 50.5022 215.5 50.3982 215.396C50.2942 215.292 50.1702 215.24 50.0262 215.24C49.8795 215.24 49.7529 215.292 49.6462 215.396C49.5422 215.5 49.4902 215.625 49.4902 215.772C49.4902 215.919 49.5422 216.044 49.6462 216.148C49.7529 216.252 49.8795 216.304 50.0262 216.304Z" fill="white"/>
<path d="M160.15 29.104C159.82 29.104 159.521 29.0293 159.254 28.88C158.99 28.728 158.762 28.5187 158.57 28.252C158.378 27.9853 158.232 27.6773 158.13 27.328C158.029 26.976 157.978 26.6 157.978 26.2C157.978 25.8 158.029 25.424 158.13 25.072C158.232 24.72 158.378 24.412 158.57 24.148C158.762 23.8813 158.99 23.6733 159.254 23.524C159.521 23.372 159.82 23.296 160.15 23.296C160.476 23.296 160.772 23.372 161.038 23.524C161.305 23.6733 161.532 23.8813 161.718 24.148C161.908 24.412 162.053 24.72 162.154 25.072C162.256 25.424 162.306 25.8 162.306 26.2C162.306 26.6 162.256 26.976 162.154 27.328C162.053 27.6773 161.908 27.9853 161.718 28.252C161.532 28.5187 161.305 28.728 161.038 28.88C160.772 29.0293 160.476 29.104 160.15 29.104ZM160.15 28.272C160.457 28.272 160.712 28.176 160.914 27.984C161.12 27.7893 161.273 27.5347 161.374 27.22C161.476 26.9053 161.526 26.5653 161.526 26.2C161.526 25.816 161.473 25.468 161.366 25.156C161.262 24.8413 161.108 24.592 160.902 24.408C160.7 24.2213 160.449 24.128 160.15 24.128C159.913 24.128 159.706 24.184 159.53 24.296C159.357 24.408 159.213 24.5613 159.098 24.756C158.986 24.9507 158.901 25.172 158.842 25.42C158.786 25.668 158.758 25.928 158.758 26.2C158.758 26.5653 158.81 26.9053 158.914 27.22C159.018 27.5347 159.173 27.7893 159.378 27.984C159.586 28.176 159.844 28.272 160.15 28.272ZM163.303 29L166.535 23.4H167.495L164.263 29H163.303ZM163.979 25.748C163.776 25.748 163.59 25.6987 163.419 25.6C163.251 25.4987 163.116 25.364 163.015 25.196C162.914 25.0253 162.863 24.8373 162.863 24.632C162.863 24.4187 162.914 24.228 163.015 24.06C163.119 23.892 163.255 23.76 163.423 23.664C163.594 23.5653 163.779 23.516 163.979 23.516C164.184 23.516 164.371 23.5667 164.539 23.668C164.707 23.7667 164.842 23.9 164.943 24.068C165.044 24.236 165.095 24.424 165.095 24.632C165.095 24.8427 165.043 25.032 164.939 25.2C164.838 25.368 164.702 25.5013 164.531 25.6C164.363 25.6987 164.179 25.748 163.979 25.748ZM163.979 25.16C164.128 25.16 164.254 25.1093 164.355 25.008C164.456 24.904 164.507 24.7787 164.507 24.632C164.507 24.4827 164.456 24.3573 164.355 24.256C164.254 24.152 164.128 24.1 163.979 24.1C163.832 24.1 163.707 24.152 163.603 24.256C163.502 24.3573 163.451 24.4827 163.451 24.632C163.451 24.7787 163.502 24.904 163.603 25.008C163.707 25.1093 163.832 25.16 163.979 25.16ZM166.827 28.892C166.619 28.892 166.43 28.84 166.259 28.736C166.091 28.6293 165.956 28.492 165.855 28.324C165.756 28.1533 165.707 27.9693 165.707 27.772C165.707 27.564 165.759 27.376 165.863 27.208C165.967 27.0373 166.103 26.9027 166.271 26.804C166.442 26.7027 166.627 26.652 166.827 26.652C167.038 26.652 167.227 26.704 167.395 26.808C167.563 26.912 167.696 27.0493 167.795 27.22C167.894 27.3907 167.943 27.5747 167.943 27.772C167.943 27.9773 167.892 28.1653 167.791 28.336C167.692 28.504 167.558 28.6387 167.387 28.74C167.219 28.8413 167.032 28.892 166.827 28.892ZM166.827 28.304C166.971 28.304 167.095 28.252 167.199 28.148C167.303 28.044 167.355 27.9187 167.355 27.772C167.355 27.6253 167.303 27.5 167.199 27.396C167.095 27.292 166.971 27.24 166.827 27.24C166.68 27.24 166.554 27.292 166.447 27.396C166.343 27.5 166.291 27.6253 166.291 27.772C166.291 27.9187 166.343 28.044 166.447 28.148C166.554 28.252 166.68 28.304 166.827 28.304Z" fill="white"/>
<path d="M159.65 217.104C159.32 217.104 159.021 217.029 158.754 216.88C158.49 216.728 158.262 216.519 158.07 216.252C157.878 215.985 157.732 215.677 157.63 215.328C157.529 214.976 157.478 214.6 157.478 214.2C157.478 213.8 157.529 213.424 157.63 213.072C157.732 212.72 157.878 212.412 158.07 212.148C158.262 211.881 158.49 211.673 158.754 211.524C159.021 211.372 159.32 211.296 159.65 211.296C159.976 211.296 160.272 211.372 160.538 211.524C160.805 211.673 161.032 211.881 161.218 212.148C161.408 212.412 161.553 212.72 161.654 213.072C161.756 213.424 161.806 213.8 161.806 214.2C161.806 214.6 161.756 214.976 161.654 215.328C161.553 215.677 161.408 215.985 161.218 216.252C161.032 216.519 160.805 216.728 160.538 216.88C160.272 217.029 159.976 217.104 159.65 217.104ZM159.65 216.272C159.957 216.272 160.212 216.176 160.414 215.984C160.62 215.789 160.773 215.535 160.874 215.22C160.976 214.905 161.026 214.565 161.026 214.2C161.026 213.816 160.973 213.468 160.866 213.156C160.762 212.841 160.608 212.592 160.402 212.408C160.2 212.221 159.949 212.128 159.65 212.128C159.413 212.128 159.206 212.184 159.03 212.296C158.857 212.408 158.713 212.561 158.598 212.756C158.486 212.951 158.401 213.172 158.342 213.42C158.286 213.668 158.258 213.928 158.258 214.2C158.258 214.565 158.31 214.905 158.414 215.22C158.518 215.535 158.673 215.789 158.878 215.984C159.086 216.176 159.344 216.272 159.65 216.272ZM162.803 217L166.035 211.4H166.995L163.763 217H162.803ZM163.479 213.748C163.276 213.748 163.09 213.699 162.919 213.6C162.751 213.499 162.616 213.364 162.515 213.196C162.414 213.025 162.363 212.837 162.363 212.632C162.363 212.419 162.414 212.228 162.515 212.06C162.619 211.892 162.755 211.76 162.923 211.664C163.094 211.565 163.279 211.516 163.479 211.516C163.684 211.516 163.871 211.567 164.039 211.668C164.207 211.767 164.342 211.9 164.443 212.068C164.544 212.236 164.595 212.424 164.595 212.632C164.595 212.843 164.543 213.032 164.439 213.2C164.338 213.368 164.202 213.501 164.031 213.6C163.863 213.699 163.679 213.748 163.479 213.748ZM163.479 213.16C163.628 213.16 163.754 213.109 163.855 213.008C163.956 212.904 164.007 212.779 164.007 212.632C164.007 212.483 163.956 212.357 163.855 212.256C163.754 212.152 163.628 212.1 163.479 212.1C163.332 212.1 163.207 212.152 163.103 212.256C163.002 212.357 162.951 212.483 162.951 212.632C162.951 212.779 163.002 212.904 163.103 213.008C163.207 213.109 163.332 213.16 163.479 213.16ZM166.327 216.892C166.119 216.892 165.93 216.84 165.759 216.736C165.591 216.629 165.456 216.492 165.355 216.324C165.256 216.153 165.207 215.969 165.207 215.772C165.207 215.564 165.259 215.376 165.363 215.208C165.467 215.037 165.603 214.903 165.771 214.804C165.942 214.703 166.127 214.652 166.327 214.652C166.538 214.652 166.727 214.704 166.895 214.808C167.063 214.912 167.196 215.049 167.295 215.22C167.394 215.391 167.443 215.575 167.443 215.772C167.443 215.977 167.392 216.165 167.291 216.336C167.192 216.504 167.058 216.639 166.887 216.74C166.719 216.841 166.532 216.892 166.327 216.892ZM166.327 216.304C166.471 216.304 166.595 216.252 166.699 216.148C166.803 216.044 166.855 215.919 166.855 215.772C166.855 215.625 166.803 215.5 166.699 215.396C166.595 215.292 166.471 215.24 166.327 215.24C166.18 215.24 166.054 215.292 165.947 215.396C165.843 215.5 165.791 215.625 165.791 215.772C165.791 215.919 165.843 216.044 165.947 216.148C166.054 216.252 166.18 216.304 166.327 216.304Z" fill="white"/>
<path d="M74.3863 26.184H76.9463V27.016H74.3863V26.184ZM78.4177 29V24.232H77.7497L77.9777 23.4H79.2497V29H78.4177ZM80.6466 29.104C80.524 29.104 80.42 29.0613 80.3346 28.976C80.252 28.8907 80.2106 28.7867 80.2106 28.664C80.2106 28.544 80.252 28.4413 80.3346 28.356C80.42 28.2707 80.524 28.228 80.6466 28.228C80.7693 28.228 80.8733 28.2707 80.9586 28.356C81.044 28.4413 81.0866 28.544 81.0866 28.664C81.0866 28.7867 81.044 28.8907 80.9586 28.976C80.8733 29.0613 80.7693 29.104 80.6466 29.104ZM83.9823 29.104C83.6516 29.104 83.353 29.0293 83.0863 28.88C82.8223 28.728 82.5943 28.5187 82.4023 28.252C82.2103 27.9853 82.0636 27.6773 81.9623 27.328C81.861 26.976 81.8103 26.6 81.8103 26.2C81.8103 25.8 81.861 25.424 81.9623 25.072C82.0636 24.72 82.2103 24.412 82.4023 24.148C82.5943 23.8813 82.8223 23.6733 83.0863 23.524C83.353 23.372 83.6516 23.296 83.9823 23.296C84.3076 23.296 84.6036 23.372 84.8703 23.524C85.137 23.6733 85.3636 23.8813 85.5503 24.148C85.7396 24.412 85.885 24.72 85.9863 25.072C86.0876 25.424 86.1383 25.8 86.1383 26.2C86.1383 26.6 86.0876 26.976 85.9863 27.328C85.885 27.6773 85.7396 27.9853 85.5503 28.252C85.3636 28.5187 85.137 28.728 84.8703 28.88C84.6036 29.0293 84.3076 29.104 83.9823 29.104ZM83.9823 28.272C84.289 28.272 84.5436 28.176 84.7463 27.984C84.9516 27.7893 85.105 27.5347 85.2063 27.22C85.3076 26.9053 85.3583 26.5653 85.3583 26.2C85.3583 25.816 85.305 25.468 85.1983 25.156C85.0943 24.8413 84.9396 24.592 84.7343 24.408C84.5316 24.2213 84.281 24.128 83.9823 24.128C83.745 24.128 83.5383 24.184 83.3623 24.296C83.189 24.408 83.045 24.5613 82.9303 24.756C82.8183 24.9507 82.733 25.172 82.6743 25.42C82.6183 25.668 82.5903 25.928 82.5903 26.2C82.5903 26.5653 82.6423 26.9053 82.7463 27.22C82.8503 27.5347 83.005 27.7893 83.2103 27.984C83.4183 28.176 83.6756 28.272 83.9823 28.272ZM87.135 29L90.367 23.4H91.327L88.095 29H87.135ZM87.811 25.748C87.6083 25.748 87.4217 25.6987 87.251 25.6C87.083 25.4987 86.9483 25.364 86.847 25.196C86.7457 25.0253 86.695 24.8373 86.695 24.632C86.695 24.4187 86.7457 24.228 86.847 24.06C86.951 23.892 87.087 23.76 87.255 23.664C87.4257 23.5653 87.611 23.516 87.811 23.516C88.0163 23.516 88.203 23.5667 88.371 23.668C88.539 23.7667 88.6737 23.9 88.775 24.068C88.8763 24.236 88.927 24.424 88.927 24.632C88.927 24.8427 88.875 25.032 88.771 25.2C88.6697 25.368 88.5337 25.5013 88.363 25.6C88.195 25.6987 88.011 25.748 87.811 25.748ZM87.811 25.16C87.9603 25.16 88.0857 25.1093 88.187 25.008C88.2883 24.904 88.339 24.7787 88.339 24.632C88.339 24.4827 88.2883 24.3573 88.187 24.256C88.0857 24.152 87.9603 24.1 87.811 24.1C87.6643 24.1 87.539 24.152 87.435 24.256C87.3337 24.3573 87.283 24.4827 87.283 24.632C87.283 24.7787 87.3337 24.904 87.435 25.008C87.539 25.1093 87.6643 25.16 87.811 25.16ZM90.659 28.892C90.451 28.892 90.2617 28.84 90.091 28.736C89.923 28.6293 89.7883 28.492 89.687 28.324C89.5883 28.1533 89.539 27.9693 89.539 27.772C89.539 27.564 89.591 27.376 89.695 27.208C89.799 27.0373 89.935 26.9027 90.103 26.804C90.2737 26.7027 90.459 26.652 90.659 26.652C90.8697 26.652 91.059 26.704 91.227 26.808C91.395 26.912 91.5283 27.0493 91.627 27.22C91.7257 27.3907 91.775 27.5747 91.775 27.772C91.775 27.9773 91.7243 28.1653 91.623 28.336C91.5243 28.504 91.3897 28.6387 91.219 28.74C91.051 28.8413 90.8643 28.892 90.659 28.892ZM90.659 28.304C90.803 28.304 90.927 28.252 91.031 28.148C91.135 28.044 91.187 27.9187 91.187 27.772C91.187 27.6253 91.135 27.5 91.031 27.396C90.927 27.292 90.803 27.24 90.659 27.24C90.5123 27.24 90.3857 27.292 90.279 27.396C90.175 27.5 90.123 27.6253 90.123 27.772C90.123 27.9187 90.175 28.044 90.279 28.148C90.3857 28.252 90.5123 28.304 90.659 28.304Z" fill="white"/>
<path d="M73.8863 214.184H76.4463V215.016H73.8863V214.184ZM77.9177 217V212.232H77.2497L77.4777 211.4H78.7497V217H77.9177ZM80.1466 217.104C80.024 217.104 79.92 217.061 79.8346 216.976C79.752 216.891 79.7106 216.787 79.7106 216.664C79.7106 216.544 79.752 216.441 79.8346 216.356C79.92 216.271 80.024 216.228 80.1466 216.228C80.2693 216.228 80.3733 216.271 80.4586 216.356C80.544 216.441 80.5866 216.544 80.5866 216.664C80.5866 216.787 80.544 216.891 80.4586 216.976C80.3733 217.061 80.2693 217.104 80.1466 217.104ZM83.4823 217.104C83.1516 217.104 82.853 217.029 82.5863 216.88C82.3223 216.728 82.0943 216.519 81.9023 216.252C81.7103 215.985 81.5636 215.677 81.4623 215.328C81.361 214.976 81.3103 214.6 81.3103 214.2C81.3103 213.8 81.361 213.424 81.4623 213.072C81.5636 212.72 81.7103 212.412 81.9023 212.148C82.0943 211.881 82.3223 211.673 82.5863 211.524C82.853 211.372 83.1516 211.296 83.4823 211.296C83.8076 211.296 84.1036 211.372 84.3703 211.524C84.637 211.673 84.8636 211.881 85.0503 212.148C85.2396 212.412 85.385 212.72 85.4863 213.072C85.5876 213.424 85.6383 213.8 85.6383 214.2C85.6383 214.6 85.5876 214.976 85.4863 215.328C85.385 215.677 85.2396 215.985 85.0503 216.252C84.8636 216.519 84.637 216.728 84.3703 216.88C84.1036 217.029 83.8076 217.104 83.4823 217.104ZM83.4823 216.272C83.789 216.272 84.0436 216.176 84.2463 215.984C84.4516 215.789 84.605 215.535 84.7063 215.22C84.8076 214.905 84.8583 214.565 84.8583 214.2C84.8583 213.816 84.805 213.468 84.6983 213.156C84.5943 212.841 84.4396 212.592 84.2343 212.408C84.0316 212.221 83.781 212.128 83.4823 212.128C83.245 212.128 83.0383 212.184 82.8623 212.296C82.689 212.408 82.545 212.561 82.4303 212.756C82.3183 212.951 82.233 213.172 82.1743 213.42C82.1183 213.668 82.0903 213.928 82.0903 214.2C82.0903 214.565 82.1423 214.905 82.2463 215.22C82.3503 215.535 82.505 215.789 82.7103 215.984C82.9183 216.176 83.1756 216.272 83.4823 216.272ZM86.635 217L89.867 211.4H90.827L87.595 217H86.635ZM87.311 213.748C87.1083 213.748 86.9217 213.699 86.751 213.6C86.583 213.499 86.4483 213.364 86.347 213.196C86.2457 213.025 86.195 212.837 86.195 212.632C86.195 212.419 86.2457 212.228 86.347 212.06C86.451 211.892 86.587 211.76 86.755 211.664C86.9257 211.565 87.111 211.516 87.311 211.516C87.5163 211.516 87.703 211.567 87.871 211.668C88.039 211.767 88.1737 211.9 88.275 212.068C88.3763 212.236 88.427 212.424 88.427 212.632C88.427 212.843 88.375 213.032 88.271 213.2C88.1697 213.368 88.0337 213.501 87.863 213.6C87.695 213.699 87.511 213.748 87.311 213.748ZM87.311 213.16C87.4603 213.16 87.5857 213.109 87.687 213.008C87.7883 212.904 87.839 212.779 87.839 212.632C87.839 212.483 87.7883 212.357 87.687 212.256C87.5857 212.152 87.4603 212.1 87.311 212.1C87.1643 212.1 87.039 212.152 86.935 212.256C86.8337 212.357 86.783 212.483 86.783 212.632C86.783 212.779 86.8337 212.904 86.935 213.008C87.039 213.109 87.1643 213.16 87.311 213.16ZM90.159 216.892C89.951 216.892 89.7617 216.84 89.591 216.736C89.423 216.629 89.2883 216.492 89.187 216.324C89.0883 216.153 89.039 215.969 89.039 215.772C89.039 215.564 89.091 215.376 89.195 215.208C89.299 215.037 89.435 214.903 89.603 214.804C89.7737 214.703 89.959 214.652 90.159 214.652C90.3697 214.652 90.559 214.704 90.727 214.808C90.895 214.912 91.0283 215.049 91.127 215.22C91.2257 215.391 91.275 215.575 91.275 215.772C91.275 215.977 91.2243 216.165 91.123 216.336C91.0243 216.504 90.8897 216.639 90.719 216.74C90.551 216.841 90.3643 216.892 90.159 216.892ZM90.159 216.304C90.303 216.304 90.427 216.252 90.531 216.148C90.635 216.044 90.687 215.919 90.687 215.772C90.687 215.625 90.635 215.5 90.531 215.396C90.427 215.292 90.303 215.24 90.159 215.24C90.0123 215.24 89.8857 215.292 89.779 215.396C89.675 215.5 89.623 215.625 89.623 215.772C89.623 215.919 89.675 216.044 89.779 216.148C89.8857 216.252 90.0123 216.304 90.159 216.304Z" fill="white"/>
<path d="M194.713 28.6V27.016H193.129V26.184H194.713V24.6H195.545V26.184H197.129V27.016H195.545V28.6H194.713ZM199.861 29.104C199.531 29.104 199.232 29.0293 198.965 28.88C198.701 28.728 198.473 28.5187 198.281 28.252C198.089 27.9853 197.943 27.6773 197.841 27.328C197.74 26.976 197.689 26.6 197.689 26.2C197.689 25.8 197.74 25.424 197.841 25.072C197.943 24.72 198.089 24.412 198.281 24.148C198.473 23.8813 198.701 23.6733 198.965 23.524C199.232 23.372 199.531 23.296 199.861 23.296C200.187 23.296 200.483 23.372 200.749 23.524C201.016 23.6733 201.243 23.8813 201.429 24.148C201.619 24.412 201.764 24.72 201.865 25.072C201.967 25.424 202.017 25.8 202.017 26.2C202.017 26.6 201.967 26.976 201.865 27.328C201.764 27.6773 201.619 27.9853 201.429 28.252C201.243 28.5187 201.016 28.728 200.749 28.88C200.483 29.0293 200.187 29.104 199.861 29.104ZM199.861 28.272C200.168 28.272 200.423 28.176 200.625 27.984C200.831 27.7893 200.984 27.5347 201.085 27.22C201.187 26.9053 201.237 26.5653 201.237 26.2C201.237 25.816 201.184 25.468 201.077 25.156C200.973 24.8413 200.819 24.592 200.613 24.408C200.411 24.2213 200.16 24.128 199.861 24.128C199.624 24.128 199.417 24.184 199.241 24.296C199.068 24.408 198.924 24.5613 198.809 24.756C198.697 24.9507 198.612 25.172 198.553 25.42C198.497 25.668 198.469 25.928 198.469 26.2C198.469 26.5653 198.521 26.9053 198.625 27.22C198.729 27.5347 198.884 27.7893 199.089 27.984C199.297 28.176 199.555 28.272 199.861 28.272ZM203.01 29.104C202.887 29.104 202.783 29.0613 202.698 28.976C202.615 28.8907 202.574 28.7867 202.574 28.664C202.574 28.544 202.615 28.4413 202.698 28.356C202.783 28.2707 202.887 28.228 203.01 28.228C203.133 28.228 203.237 28.2707 203.322 28.356C203.407 28.4413 203.45 28.544 203.45 28.664C203.45 28.7867 203.407 28.8907 203.322 28.976C203.237 29.0613 203.133 29.104 203.01 29.104ZM206.106 29.104C205.751 29.104 205.43 29.0187 205.142 28.848C204.856 28.6747 204.63 28.4453 204.462 28.16C204.296 27.872 204.214 27.5573 204.214 27.216H205.046C205.046 27.4107 205.094 27.588 205.19 27.748C205.286 27.908 205.414 28.036 205.574 28.132C205.734 28.2253 205.911 28.272 206.106 28.272C206.298 28.272 206.474 28.2253 206.634 28.132C206.794 28.036 206.922 27.908 207.018 27.748C207.114 27.588 207.162 27.4107 207.162 27.216C207.162 27.0213 207.118 26.844 207.03 26.684C206.942 26.5213 206.81 26.392 206.634 26.296C206.458 26.1973 206.234 26.148 205.962 26.148H204.55L205.118 23.4H207.826V24.232H205.794L205.574 25.316L206.058 25.324C206.439 25.332 206.774 25.42 207.062 25.588C207.352 25.7533 207.58 25.9773 207.746 26.26C207.911 26.54 207.994 26.8587 207.994 27.216C207.994 27.4747 207.944 27.7187 207.846 27.948C207.747 28.1747 207.611 28.3747 207.438 28.548C207.267 28.7213 207.067 28.8573 206.838 28.956C206.611 29.0547 206.367 29.104 206.106 29.104ZM209.233 29L212.465 23.4H213.425L210.193 29H209.233ZM209.909 25.748C209.706 25.748 209.519 25.6987 209.349 25.6C209.181 25.4987 209.046 25.364 208.945 25.196C208.843 25.0253 208.793 24.8373 208.793 24.632C208.793 24.4187 208.843 24.228 208.945 24.06C209.049 23.892 209.185 23.76 209.353 23.664C209.523 23.5653 209.709 23.516 209.909 23.516C210.114 23.516 210.301 23.5667 210.469 23.668C210.637 23.7667 210.771 23.9 210.873 24.068C210.974 24.236 211.025 24.424 211.025 24.632C211.025 24.8427 210.973 25.032 210.869 25.2C210.767 25.368 210.631 25.5013 210.461 25.6C210.293 25.6987 210.109 25.748 209.909 25.748ZM209.909 25.16C210.058 25.16 210.183 25.1093 210.285 25.008C210.386 24.904 210.437 24.7787 210.437 24.632C210.437 24.4827 210.386 24.3573 210.285 24.256C210.183 24.152 210.058 24.1 209.909 24.1C209.762 24.1 209.637 24.152 209.533 24.256C209.431 24.3573 209.381 24.4827 209.381 24.632C209.381 24.7787 209.431 24.904 209.533 25.008C209.637 25.1093 209.762 25.16 209.909 25.16ZM212.757 28.892C212.549 28.892 212.359 28.84 212.189 28.736C212.021 28.6293 211.886 28.492 211.785 28.324C211.686 28.1533 211.637 27.9693 211.637 27.772C211.637 27.564 211.689 27.376 211.793 27.208C211.897 27.0373 212.033 26.9027 212.201 26.804C212.371 26.7027 212.557 26.652 212.757 26.652C212.967 26.652 213.157 26.704 213.325 26.808C213.493 26.912 213.626 27.0493 213.725 27.22C213.823 27.3907 213.873 27.5747 213.873 27.772C213.873 27.9773 213.822 28.1653 213.721 28.336C213.622 28.504 213.487 28.6387 213.317 28.74C213.149 28.8413 212.962 28.892 212.757 28.892ZM212.757 28.304C212.901 28.304 213.025 28.252 213.129 28.148C213.233 28.044 213.285 27.9187 213.285 27.772C213.285 27.6253 213.233 27.5 213.129 27.396C213.025 27.292 212.901 27.24 212.757 27.24C212.61 27.24 212.483 27.292 212.377 27.396C212.273 27.5 212.221 27.6253 212.221 27.772C212.221 27.9187 212.273 28.044 212.377 28.148C212.483 28.252 212.61 28.304 212.757 28.304Z" fill="white"/>
<path d="M194.213 216.6V215.016H192.629V214.184H194.213V212.6H195.045V214.184H196.629V215.016H195.045V216.6H194.213ZM199.361 217.104C199.031 217.104 198.732 217.029 198.465 216.88C198.201 216.728 197.973 216.519 197.781 216.252C197.589 215.985 197.443 215.677 197.341 215.328C197.24 214.976 197.189 214.6 197.189 214.2C197.189 213.8 197.24 213.424 197.341 213.072C197.443 212.72 197.589 212.412 197.781 212.148C197.973 211.881 198.201 211.673 198.465 211.524C198.732 211.372 199.031 211.296 199.361 211.296C199.687 211.296 199.983 211.372 200.249 211.524C200.516 211.673 200.743 211.881 200.929 212.148C201.119 212.412 201.264 212.72 201.365 213.072C201.467 213.424 201.517 213.8 201.517 214.2C201.517 214.6 201.467 214.976 201.365 215.328C201.264 215.677 201.119 215.985 200.929 216.252C200.743 216.519 200.516 216.728 200.249 216.88C199.983 217.029 199.687 217.104 199.361 217.104ZM199.361 216.272C199.668 216.272 199.923 216.176 200.125 215.984C200.331 215.789 200.484 215.535 200.585 215.22C200.687 214.905 200.737 214.565 200.737 214.2C200.737 213.816 200.684 213.468 200.577 213.156C200.473 212.841 200.319 212.592 200.113 212.408C199.911 212.221 199.66 212.128 199.361 212.128C199.124 212.128 198.917 212.184 198.741 212.296C198.568 212.408 198.424 212.561 198.309 212.756C198.197 212.951 198.112 213.172 198.053 213.42C197.997 213.668 197.969 213.928 197.969 214.2C197.969 214.565 198.021 214.905 198.125 215.22C198.229 215.535 198.384 215.789 198.589 215.984C198.797 216.176 199.055 216.272 199.361 216.272ZM202.51 217.104C202.387 217.104 202.283 217.061 202.198 216.976C202.115 216.891 202.074 216.787 202.074 216.664C202.074 216.544 202.115 216.441 202.198 216.356C202.283 216.271 202.387 216.228 202.51 216.228C202.633 216.228 202.737 216.271 202.822 216.356C202.907 216.441 202.95 216.544 202.95 216.664C202.95 216.787 202.907 216.891 202.822 216.976C202.737 217.061 202.633 217.104 202.51 217.104ZM205.606 217.104C205.251 217.104 204.93 217.019 204.642 216.848C204.356 216.675 204.13 216.445 203.962 216.16C203.796 215.872 203.714 215.557 203.714 215.216H204.546C204.546 215.411 204.594 215.588 204.69 215.748C204.786 215.908 204.914 216.036 205.074 216.132C205.234 216.225 205.411 216.272 205.606 216.272C205.798 216.272 205.974 216.225 206.134 216.132C206.294 216.036 206.422 215.908 206.518 215.748C206.614 215.588 206.662 215.411 206.662 215.216C206.662 215.021 206.618 214.844 206.53 214.684C206.442 214.521 206.31 214.392 206.134 214.296C205.958 214.197 205.734 214.148 205.462 214.148H204.05L204.618 211.4H207.326V212.232H205.294L205.074 213.316L205.558 213.324C205.939 213.332 206.274 213.42 206.562 213.588C206.852 213.753 207.08 213.977 207.246 214.26C207.411 214.54 207.494 214.859 207.494 215.216C207.494 215.475 207.444 215.719 207.346 215.948C207.247 216.175 207.111 216.375 206.938 216.548C206.767 216.721 206.567 216.857 206.338 216.956C206.111 217.055 205.867 217.104 205.606 217.104ZM208.733 217L211.965 211.4H212.925L209.693 217H208.733ZM209.409 213.748C209.206 213.748 209.019 213.699 208.849 213.6C208.681 213.499 208.546 213.364 208.445 213.196C208.343 213.025 208.293 212.837 208.293 212.632C208.293 212.419 208.343 212.228 208.445 212.06C208.549 211.892 208.685 211.76 208.853 211.664C209.023 211.565 209.209 211.516 209.409 211.516C209.614 211.516 209.801 211.567 209.969 211.668C210.137 211.767 210.271 211.9 210.373 212.068C210.474 212.236 210.525 212.424 210.525 212.632C210.525 212.843 210.473 213.032 210.369 213.2C210.267 213.368 210.131 213.501 209.961 213.6C209.793 213.699 209.609 213.748 209.409 213.748ZM209.409 213.16C209.558 213.16 209.683 213.109 209.785 213.008C209.886 212.904 209.937 212.779 209.937 212.632C209.937 212.483 209.886 212.357 209.785 212.256C209.683 212.152 209.558 212.1 209.409 212.1C209.262 212.1 209.137 212.152 209.033 212.256C208.931 212.357 208.881 212.483 208.881 212.632C208.881 212.779 208.931 212.904 209.033 213.008C209.137 213.109 209.262 213.16 209.409 213.16ZM212.257 216.892C212.049 216.892 211.859 216.84 211.689 216.736C211.521 216.629 211.386 216.492 211.285 216.324C211.186 216.153 211.137 215.969 211.137 215.772C211.137 215.564 211.189 215.376 211.293 215.208C211.397 215.037 211.533 214.903 211.701 214.804C211.871 214.703 212.057 214.652 212.257 214.652C212.467 214.652 212.657 214.704 212.825 214.808C212.993 214.912 213.126 215.049 213.225 215.22C213.323 215.391 213.373 215.575 213.373 215.772C213.373 215.977 213.322 216.165 213.221 216.336C213.122 216.504 212.987 216.639 212.817 216.74C212.649 216.841 212.462 216.892 212.257 216.892ZM212.257 216.304C212.401 216.304 212.525 216.252 212.629 216.148C212.733 216.044 212.785 215.919 212.785 215.772C212.785 215.625 212.733 215.5 212.629 215.396C212.525 215.292 212.401 215.24 212.257 215.24C212.11 215.24 211.983 215.292 211.877 215.396C211.773 215.5 211.721 215.625 211.721 215.772C211.721 215.919 211.773 216.044 211.877 216.148C211.983 216.252 212.11 216.304 212.257 216.304Z" fill="white"/>
<path d="M113.847 26.184H116.407V27.016H113.847V26.184ZM119.303 29.104C118.972 29.104 118.673 29.0293 118.407 28.88C118.143 28.728 117.915 28.5187 117.723 28.252C117.531 27.9853 117.384 27.6773 117.283 27.328C117.181 26.976 117.131 26.6 117.131 26.2C117.131 25.8 117.181 25.424 117.283 25.072C117.384 24.72 117.531 24.412 117.723 24.148C117.915 23.8813 118.143 23.6733 118.407 23.524C118.673 23.372 118.972 23.296 119.303 23.296C119.628 23.296 119.924 23.372 120.191 23.524C120.457 23.6733 120.684 23.8813 120.871 24.148C121.06 24.412 121.205 24.72 121.307 25.072C121.408 25.424 121.459 25.8 121.459 26.2C121.459 26.6 121.408 26.976 121.307 27.328C121.205 27.6773 121.06 27.9853 120.871 28.252C120.684 28.5187 120.457 28.728 120.191 28.88C119.924 29.0293 119.628 29.104 119.303 29.104ZM119.303 28.272C119.609 28.272 119.864 28.176 120.067 27.984C120.272 27.7893 120.425 27.5347 120.527 27.22C120.628 26.9053 120.679 26.5653 120.679 26.2C120.679 25.816 120.625 25.468 120.519 25.156C120.415 24.8413 120.26 24.592 120.055 24.408C119.852 24.2213 119.601 24.128 119.303 24.128C119.065 24.128 118.859 24.184 118.683 24.296C118.509 24.408 118.365 24.5613 118.251 24.756C118.139 24.9507 118.053 25.172 117.995 25.42C117.939 25.668 117.911 25.928 117.911 26.2C117.911 26.5653 117.963 26.9053 118.067 27.22C118.171 27.5347 118.325 27.7893 118.531 27.984C118.739 28.176 118.996 28.272 119.303 28.272ZM122.451 29.104C122.329 29.104 122.225 29.0613 122.139 28.976C122.057 28.8907 122.015 28.7867 122.015 28.664C122.015 28.544 122.057 28.4413 122.139 28.356C122.225 28.2707 122.329 28.228 122.451 28.228C122.574 28.228 122.678 28.2707 122.763 28.356C122.849 28.4413 122.891 28.544 122.891 28.664C122.891 28.7867 122.849 28.8907 122.763 28.976C122.678 29.0613 122.574 29.104 122.451 29.104ZM125.547 29.104C125.192 29.104 124.871 29.0187 124.583 28.848C124.298 28.6747 124.071 28.4453 123.903 28.16C123.738 27.872 123.655 27.5573 123.655 27.216H124.487C124.487 27.4107 124.535 27.588 124.631 27.748C124.727 27.908 124.855 28.036 125.015 28.132C125.175 28.2253 125.352 28.272 125.547 28.272C125.739 28.272 125.915 28.2253 126.075 28.132C126.235 28.036 126.363 27.908 126.459 27.748C126.555 27.588 126.603 27.4107 126.603 27.216C126.603 27.0213 126.559 26.844 126.471 26.684C126.383 26.5213 126.251 26.392 126.075 26.296C125.899 26.1973 125.675 26.148 125.403 26.148H123.991L124.559 23.4H127.267V24.232H125.235L125.015 25.316L125.499 25.324C125.88 25.332 126.215 25.42 126.503 25.588C126.794 25.7533 127.022 25.9773 127.187 26.26C127.352 26.54 127.435 26.8587 127.435 27.216C127.435 27.4747 127.386 27.7187 127.287 27.948C127.188 28.1747 127.052 28.3747 126.879 28.548C126.708 28.7213 126.508 28.8573 126.279 28.956C126.052 29.0547 125.808 29.104 125.547 29.104ZM128.674 29L131.906 23.4H132.866L129.634 29H128.674ZM129.35 25.748C129.147 25.748 128.961 25.6987 128.79 25.6C128.622 25.4987 128.487 25.364 128.386 25.196C128.285 25.0253 128.234 24.8373 128.234 24.632C128.234 24.4187 128.285 24.228 128.386 24.06C128.49 23.892 128.626 23.76 128.794 23.664C128.965 23.5653 129.15 23.516 129.35 23.516C129.555 23.516 129.742 23.5667 129.91 23.668C130.078 23.7667 130.213 23.9 130.314 24.068C130.415 24.236 130.466 24.424 130.466 24.632C130.466 24.8427 130.414 25.032 130.31 25.2C130.209 25.368 130.073 25.5013 129.902 25.6C129.734 25.6987 129.55 25.748 129.35 25.748ZM129.35 25.16C129.499 25.16 129.625 25.1093 129.726 25.008C129.827 24.904 129.878 24.7787 129.878 24.632C129.878 24.4827 129.827 24.3573 129.726 24.256C129.625 24.152 129.499 24.1 129.35 24.1C129.203 24.1 129.078 24.152 128.974 24.256C128.873 24.3573 128.822 24.4827 128.822 24.632C128.822 24.7787 128.873 24.904 128.974 25.008C129.078 25.1093 129.203 25.16 129.35 25.16ZM132.198 28.892C131.99 28.892 131.801 28.84 131.63 28.736C131.462 28.6293 131.327 28.492 131.226 28.324C131.127 28.1533 131.078 27.9693 131.078 27.772C131.078 27.564 131.13 27.376 131.234 27.208C131.338 27.0373 131.474 26.9027 131.642 26.804C131.813 26.7027 131.998 26.652 132.198 26.652C132.409 26.652 132.598 26.704 132.766 26.808C132.934 26.912 133.067 27.0493 133.166 27.22C133.265 27.3907 133.314 27.5747 133.314 27.772C133.314 27.9773 133.263 28.1653 133.162 28.336C133.063 28.504 132.929 28.6387 132.758 28.74C132.59 28.8413 132.403 28.892 132.198 28.892ZM132.198 28.304C132.342 28.304 132.466 28.252 132.57 28.148C132.674 28.044 132.726 27.9187 132.726 27.772C132.726 27.6253 132.674 27.5 132.57 27.396C132.466 27.292 132.342 27.24 132.198 27.24C132.051 27.24 131.925 27.292 131.818 27.396C131.714 27.5 131.662 27.6253 131.662 27.772C131.662 27.9187 131.714 28.044 131.818 28.148C131.925 28.252 132.051 28.304 132.198 28.304Z" fill="white"/>
<path d="M113.347 214.184H115.907V215.016H113.347V214.184ZM118.803 217.104C118.472 217.104 118.173 217.029 117.907 216.88C117.643 216.728 117.415 216.519 117.223 216.252C117.031 215.985 116.884 215.677 116.783 215.328C116.681 214.976 116.631 214.6 116.631 214.2C116.631 213.8 116.681 213.424 116.783 213.072C116.884 212.72 117.031 212.412 117.223 212.148C117.415 211.881 117.643 211.673 117.907 211.524C118.173 211.372 118.472 211.296 118.803 211.296C119.128 211.296 119.424 211.372 119.691 211.524C119.957 211.673 120.184 211.881 120.371 212.148C120.56 212.412 120.705 212.72 120.807 213.072C120.908 213.424 120.959 213.8 120.959 214.2C120.959 214.6 120.908 214.976 120.807 215.328C120.705 215.677 120.56 215.985 120.371 216.252C120.184 216.519 119.957 216.728 119.691 216.88C119.424 217.029 119.128 217.104 118.803 217.104ZM118.803 216.272C119.109 216.272 119.364 216.176 119.567 215.984C119.772 215.789 119.925 215.535 120.027 215.22C120.128 214.905 120.179 214.565 120.179 214.2C120.179 213.816 120.125 213.468 120.019 213.156C119.915 212.841 119.76 212.592 119.555 212.408C119.352 212.221 119.101 212.128 118.803 212.128C118.565 212.128 118.359 212.184 118.183 212.296C118.009 212.408 117.865 212.561 117.751 212.756C117.639 212.951 117.553 213.172 117.495 213.42C117.439 213.668 117.411 213.928 117.411 214.2C117.411 214.565 117.463 214.905 117.567 215.22C117.671 215.535 117.825 215.789 118.031 215.984C118.239 216.176 118.496 216.272 118.803 216.272ZM121.951 217.104C121.829 217.104 121.725 217.061 121.639 216.976C121.557 216.891 121.515 216.787 121.515 216.664C121.515 216.544 121.557 216.441 121.639 216.356C121.725 216.271 121.829 216.228 121.951 216.228C122.074 216.228 122.178 216.271 122.263 216.356C122.349 216.441 122.391 216.544 122.391 216.664C122.391 216.787 122.349 216.891 122.263 216.976C122.178 217.061 122.074 217.104 121.951 217.104ZM125.047 217.104C124.692 217.104 124.371 217.019 124.083 216.848C123.798 216.675 123.571 216.445 123.403 216.16C123.238 215.872 123.155 215.557 123.155 215.216H123.987C123.987 215.411 124.035 215.588 124.131 215.748C124.227 215.908 124.355 216.036 124.515 216.132C124.675 216.225 124.852 216.272 125.047 216.272C125.239 216.272 125.415 216.225 125.575 216.132C125.735 216.036 125.863 215.908 125.959 215.748C126.055 215.588 126.103 215.411 126.103 215.216C126.103 215.021 126.059 214.844 125.971 214.684C125.883 214.521 125.751 214.392 125.575 214.296C125.399 214.197 125.175 214.148 124.903 214.148H123.491L124.059 211.4H126.767V212.232H124.735L124.515 213.316L124.999 213.324C125.38 213.332 125.715 213.42 126.003 213.588C126.294 213.753 126.522 213.977 126.687 214.26C126.852 214.54 126.935 214.859 126.935 215.216C126.935 215.475 126.886 215.719 126.787 215.948C126.688 216.175 126.552 216.375 126.379 216.548C126.208 216.721 126.008 216.857 125.779 216.956C125.552 217.055 125.308 217.104 125.047 217.104ZM128.174 217L131.406 211.4H132.366L129.134 217H128.174ZM128.85 213.748C128.647 213.748 128.461 213.699 128.29 213.6C128.122 213.499 127.987 213.364 127.886 213.196C127.785 213.025 127.734 212.837 127.734 212.632C127.734 212.419 127.785 212.228 127.886 212.06C127.99 211.892 128.126 211.76 128.294 211.664C128.465 211.565 128.65 211.516 128.85 211.516C129.055 211.516 129.242 211.567 129.41 211.668C129.578 211.767 129.713 211.9 129.814 212.068C129.915 212.236 129.966 212.424 129.966 212.632C129.966 212.843 129.914 213.032 129.81 213.2C129.709 213.368 129.573 213.501 129.402 213.6C129.234 213.699 129.05 213.748 128.85 213.748ZM128.85 213.16C128.999 213.16 129.125 213.109 129.226 213.008C129.327 212.904 129.378 212.779 129.378 212.632C129.378 212.483 129.327 212.357 129.226 212.256C129.125 212.152 128.999 212.1 128.85 212.1C128.703 212.1 128.578 212.152 128.474 212.256C128.373 212.357 128.322 212.483 128.322 212.632C128.322 212.779 128.373 212.904 128.474 213.008C128.578 213.109 128.703 213.16 128.85 213.16ZM131.698 216.892C131.49 216.892 131.301 216.84 131.13 216.736C130.962 216.629 130.827 216.492 130.726 216.324C130.627 216.153 130.578 215.969 130.578 215.772C130.578 215.564 130.63 215.376 130.734 215.208C130.838 215.037 130.974 214.903 131.142 214.804C131.313 214.703 131.498 214.652 131.698 214.652C131.909 214.652 132.098 214.704 132.266 214.808C132.434 214.912 132.567 215.049 132.666 215.22C132.765 215.391 132.814 215.575 132.814 215.772C132.814 215.977 132.763 216.165 132.662 216.336C132.563 216.504 132.429 216.639 132.258 216.74C132.09 216.841 131.903 216.892 131.698 216.892ZM131.698 216.304C131.842 216.304 131.966 216.252 132.07 216.148C132.174 216.044 132.226 215.919 132.226 215.772C132.226 215.625 132.174 215.5 132.07 215.396C131.966 215.292 131.842 215.24 131.698 215.24C131.551 215.24 131.425 215.292 131.318 215.396C131.214 215.5 131.162 215.625 131.162 215.772C131.162 215.919 131.214 216.044 131.318 216.148C131.425 216.252 131.551 216.304 131.698 216.304Z" fill="white"/>
<path d="M235.752 28.6V27.016H234.168V26.184H235.752V24.6H236.584V26.184H238.168V27.016H236.584V28.6H235.752ZM239.476 29V24.232H238.808L239.036 23.4H240.308V29H239.476ZM241.705 29.104C241.583 29.104 241.479 29.0613 241.393 28.976C241.311 28.8907 241.269 28.7867 241.269 28.664C241.269 28.544 241.311 28.4413 241.393 28.356C241.479 28.2707 241.583 28.228 241.705 28.228C241.828 28.228 241.932 28.2707 242.017 28.356C242.103 28.4413 242.145 28.544 242.145 28.664C242.145 28.7867 242.103 28.8907 242.017 28.976C241.932 29.0613 241.828 29.104 241.705 29.104ZM245.041 29.104C244.71 29.104 244.412 29.0293 244.145 28.88C243.881 28.728 243.653 28.5187 243.461 28.252C243.269 27.9853 243.122 27.6773 243.021 27.328C242.92 26.976 242.869 26.6 242.869 26.2C242.869 25.8 242.92 25.424 243.021 25.072C243.122 24.72 243.269 24.412 243.461 24.148C243.653 23.8813 243.881 23.6733 244.145 23.524C244.412 23.372 244.71 23.296 245.041 23.296C245.366 23.296 245.662 23.372 245.929 23.524C246.196 23.6733 246.422 23.8813 246.609 24.148C246.798 24.412 246.944 24.72 247.045 25.072C247.146 25.424 247.197 25.8 247.197 26.2C247.197 26.6 247.146 26.976 247.045 27.328C246.944 27.6773 246.798 27.9853 246.609 28.252C246.422 28.5187 246.196 28.728 245.929 28.88C245.662 29.0293 245.366 29.104 245.041 29.104ZM245.041 28.272C245.348 28.272 245.602 28.176 245.805 27.984C246.01 27.7893 246.164 27.5347 246.265 27.22C246.366 26.9053 246.417 26.5653 246.417 26.2C246.417 25.816 246.364 25.468 246.257 25.156C246.153 24.8413 245.998 24.592 245.793 24.408C245.59 24.2213 245.34 24.128 245.041 24.128C244.804 24.128 244.597 24.184 244.421 24.296C244.248 24.408 244.104 24.5613 243.989 24.756C243.877 24.9507 243.792 25.172 243.733 25.42C243.677 25.668 243.649 25.928 243.649 26.2C243.649 26.5653 243.701 26.9053 243.805 27.22C243.909 27.5347 244.064 27.7893 244.269 27.984C244.477 28.176 244.734 28.272 245.041 28.272ZM248.194 29L251.426 23.4H252.386L249.154 29H248.194ZM248.87 25.748C248.667 25.748 248.48 25.6987 248.31 25.6C248.142 25.4987 248.007 25.364 247.906 25.196C247.804 25.0253 247.754 24.8373 247.754 24.632C247.754 24.4187 247.804 24.228 247.906 24.06C248.01 23.892 248.146 23.76 248.314 23.664C248.484 23.5653 248.67 23.516 248.87 23.516C249.075 23.516 249.262 23.5667 249.43 23.668C249.598 23.7667 249.732 23.9 249.834 24.068C249.935 24.236 249.986 24.424 249.986 24.632C249.986 24.8427 249.934 25.032 249.83 25.2C249.728 25.368 249.592 25.5013 249.422 25.6C249.254 25.6987 249.07 25.748 248.87 25.748ZM248.87 25.16C249.019 25.16 249.144 25.1093 249.246 25.008C249.347 24.904 249.398 24.7787 249.398 24.632C249.398 24.4827 249.347 24.3573 249.246 24.256C249.144 24.152 249.019 24.1 248.87 24.1C248.723 24.1 248.598 24.152 248.494 24.256C248.392 24.3573 248.342 24.4827 248.342 24.632C248.342 24.7787 248.392 24.904 248.494 25.008C248.598 25.1093 248.723 25.16 248.87 25.16ZM251.718 28.892C251.51 28.892 251.32 28.84 251.15 28.736C250.982 28.6293 250.847 28.492 250.746 28.324C250.647 28.1533 250.598 27.9693 250.598 27.772C250.598 27.564 250.65 27.376 250.754 27.208C250.858 27.0373 250.994 26.9027 251.162 26.804C251.332 26.7027 251.518 26.652 251.718 26.652C251.928 26.652 252.118 26.704 252.286 26.808C252.454 26.912 252.587 27.0493 252.686 27.22C252.784 27.3907 252.834 27.5747 252.834 27.772C252.834 27.9773 252.783 28.1653 252.682 28.336C252.583 28.504 252.448 28.6387 252.278 28.74C252.11 28.8413 251.923 28.892 251.718 28.892ZM251.718 28.304C251.862 28.304 251.986 28.252 252.09 28.148C252.194 28.044 252.246 27.9187 252.246 27.772C252.246 27.6253 252.194 27.5 252.09 27.396C251.986 27.292 251.862 27.24 251.718 27.24C251.571 27.24 251.444 27.292 251.338 27.396C251.234 27.5 251.182 27.6253 251.182 27.772C251.182 27.9187 251.234 28.044 251.338 28.148C251.444 28.252 251.571 28.304 251.718 28.304Z" fill="white"/>
<path d="M235.252 216.6V215.016H233.668V214.184H235.252V212.6H236.084V214.184H237.668V215.016H236.084V216.6H235.252ZM238.976 217V212.232H238.308L238.536 211.4H239.808V217H238.976ZM241.205 217.104C241.083 217.104 240.979 217.061 240.893 216.976C240.811 216.891 240.769 216.787 240.769 216.664C240.769 216.544 240.811 216.441 240.893 216.356C240.979 216.271 241.083 216.228 241.205 216.228C241.328 216.228 241.432 216.271 241.517 216.356C241.603 216.441 241.645 216.544 241.645 216.664C241.645 216.787 241.603 216.891 241.517 216.976C241.432 217.061 241.328 217.104 241.205 217.104ZM244.541 217.104C244.21 217.104 243.912 217.029 243.645 216.88C243.381 216.728 243.153 216.519 242.961 216.252C242.769 215.985 242.622 215.677 242.521 215.328C242.42 214.976 242.369 214.6 242.369 214.2C242.369 213.8 242.42 213.424 242.521 213.072C242.622 212.72 242.769 212.412 242.961 212.148C243.153 211.881 243.381 211.673 243.645 211.524C243.912 211.372 244.21 211.296 244.541 211.296C244.866 211.296 245.162 211.372 245.429 211.524C245.696 211.673 245.922 211.881 246.109 212.148C246.298 212.412 246.444 212.72 246.545 213.072C246.646 213.424 246.697 213.8 246.697 214.2C246.697 214.6 246.646 214.976 246.545 215.328C246.444 215.677 246.298 215.985 246.109 216.252C245.922 216.519 245.696 216.728 245.429 216.88C245.162 217.029 244.866 217.104 244.541 217.104ZM244.541 216.272C244.848 216.272 245.102 216.176 245.305 215.984C245.51 215.789 245.664 215.535 245.765 215.22C245.866 214.905 245.917 214.565 245.917 214.2C245.917 213.816 245.864 213.468 245.757 213.156C245.653 212.841 245.498 212.592 245.293 212.408C245.09 212.221 244.84 212.128 244.541 212.128C244.304 212.128 244.097 212.184 243.921 212.296C243.748 212.408 243.604 212.561 243.489 212.756C243.377 212.951 243.292 213.172 243.233 213.42C243.177 213.668 243.149 213.928 243.149 214.2C243.149 214.565 243.201 214.905 243.305 215.22C243.409 215.535 243.564 215.789 243.769 215.984C243.977 216.176 244.234 216.272 244.541 216.272ZM247.694 217L250.926 211.4H251.886L248.654 217H247.694ZM248.37 213.748C248.167 213.748 247.98 213.699 247.81 213.6C247.642 213.499 247.507 213.364 247.406 213.196C247.304 213.025 247.254 212.837 247.254 212.632C247.254 212.419 247.304 212.228 247.406 212.06C247.51 211.892 247.646 211.76 247.814 211.664C247.984 211.565 248.17 211.516 248.37 211.516C248.575 211.516 248.762 211.567 248.93 211.668C249.098 211.767 249.232 211.9 249.334 212.068C249.435 212.236 249.486 212.424 249.486 212.632C249.486 212.843 249.434 213.032 249.33 213.2C249.228 213.368 249.092 213.501 248.922 213.6C248.754 213.699 248.57 213.748 248.37 213.748ZM248.37 213.16C248.519 213.16 248.644 213.109 248.746 213.008C248.847 212.904 248.898 212.779 248.898 212.632C248.898 212.483 248.847 212.357 248.746 212.256C248.644 212.152 248.519 212.1 248.37 212.1C248.223 212.1 248.098 212.152 247.994 212.256C247.892 212.357 247.842 212.483 247.842 212.632C247.842 212.779 247.892 212.904 247.994 213.008C248.098 213.109 248.223 213.16 248.37 213.16ZM251.218 216.892C251.01 216.892 250.82 216.84 250.65 216.736C250.482 216.629 250.347 216.492 250.246 216.324C250.147 216.153 250.098 215.969 250.098 215.772C250.098 215.564 250.15 215.376 250.254 215.208C250.358 215.037 250.494 214.903 250.662 214.804C250.832 214.703 251.018 214.652 251.218 214.652C251.428 214.652 251.618 214.704 251.786 214.808C251.954 214.912 252.087 215.049 252.186 215.22C252.284 215.391 252.334 215.575 252.334 215.772C252.334 215.977 252.283 216.165 252.182 216.336C252.083 216.504 251.948 216.639 251.778 216.74C251.61 216.841 251.423 216.892 251.218 216.892ZM251.218 216.304C251.362 216.304 251.486 216.252 251.59 216.148C251.694 216.044 251.746 215.919 251.746 215.772C251.746 215.625 251.694 215.5 251.59 215.396C251.486 215.292 251.362 215.24 251.218 215.24C251.071 215.24 250.944 215.292 250.838 215.396C250.734 215.5 250.682 215.625 250.682 215.772C250.682 215.919 250.734 216.044 250.838 216.148C250.944 216.252 251.071 216.304 251.218 216.304Z" fill="white"/>
<path d="M275.884 28.6V27.016H274.3V26.184H275.884V24.6H276.716V26.184H278.3V27.016H276.716V28.6H275.884ZM279.609 29V24.232H278.941L279.169 23.4H280.441V29H279.609ZM281.838 29.104C281.715 29.104 281.611 29.0613 281.526 28.976C281.443 28.8907 281.402 28.7867 281.402 28.664C281.402 28.544 281.443 28.4413 281.526 28.356C281.611 28.2707 281.715 28.228 281.838 28.228C281.961 28.228 282.065 28.2707 282.15 28.356C282.235 28.4413 282.278 28.544 282.278 28.664C282.278 28.7867 282.235 28.8907 282.15 28.976C282.065 29.0613 281.961 29.104 281.838 29.104ZM284.934 29.104C284.579 29.104 284.258 29.0187 283.97 28.848C283.684 28.6747 283.458 28.4453 283.29 28.16C283.124 27.872 283.042 27.5573 283.042 27.216H283.874C283.874 27.4107 283.922 27.588 284.018 27.748C284.114 27.908 284.242 28.036 284.402 28.132C284.562 28.2253 284.739 28.272 284.934 28.272C285.126 28.272 285.302 28.2253 285.462 28.132C285.622 28.036 285.75 27.908 285.846 27.748C285.942 27.588 285.99 27.4107 285.99 27.216C285.99 27.0213 285.946 26.844 285.858 26.684C285.77 26.5213 285.638 26.392 285.462 26.296C285.286 26.1973 285.062 26.148 284.79 26.148H283.378L283.946 23.4H286.654V24.232H284.622L284.402 25.316L284.886 25.324C285.267 25.332 285.602 25.42 285.89 25.588C286.18 25.7533 286.408 25.9773 286.574 26.26C286.739 26.54 286.822 26.8587 286.822 27.216C286.822 27.4747 286.772 27.7187 286.674 27.948C286.575 28.1747 286.439 28.3747 286.266 28.548C286.095 28.7213 285.895 28.8573 285.666 28.956C285.439 29.0547 285.195 29.104 284.934 29.104ZM288.061 29L291.293 23.4H292.253L289.021 29H288.061ZM288.737 25.748C288.534 25.748 288.347 25.6987 288.177 25.6C288.009 25.4987 287.874 25.364 287.773 25.196C287.671 25.0253 287.621 24.8373 287.621 24.632C287.621 24.4187 287.671 24.228 287.773 24.06C287.877 23.892 288.013 23.76 288.181 23.664C288.351 23.5653 288.537 23.516 288.737 23.516C288.942 23.516 289.129 23.5667 289.297 23.668C289.465 23.7667 289.599 23.9 289.701 24.068C289.802 24.236 289.853 24.424 289.853 24.632C289.853 24.8427 289.801 25.032 289.697 25.2C289.595 25.368 289.459 25.5013 289.289 25.6C289.121 25.6987 288.937 25.748 288.737 25.748ZM288.737 25.16C288.886 25.16 289.011 25.1093 289.113 25.008C289.214 24.904 289.265 24.7787 289.265 24.632C289.265 24.4827 289.214 24.3573 289.113 24.256C289.011 24.152 288.886 24.1 288.737 24.1C288.59 24.1 288.465 24.152 288.361 24.256C288.259 24.3573 288.209 24.4827 288.209 24.632C288.209 24.7787 288.259 24.904 288.361 25.008C288.465 25.1093 288.59 25.16 288.737 25.16ZM291.585 28.892C291.377 28.892 291.187 28.84 291.017 28.736C290.849 28.6293 290.714 28.492 290.613 28.324C290.514 28.1533 290.465 27.9693 290.465 27.772C290.465 27.564 290.517 27.376 290.621 27.208C290.725 27.0373 290.861 26.9027 291.029 26.804C291.199 26.7027 291.385 26.652 291.585 26.652C291.795 26.652 291.985 26.704 292.153 26.808C292.321 26.912 292.454 27.0493 292.553 27.22C292.651 27.3907 292.701 27.5747 292.701 27.772C292.701 27.9773 292.65 28.1653 292.549 28.336C292.45 28.504 292.315 28.6387 292.145 28.74C291.977 28.8413 291.79 28.892 291.585 28.892ZM291.585 28.304C291.729 28.304 291.853 28.252 291.957 28.148C292.061 28.044 292.113 27.9187 292.113 27.772C292.113 27.6253 292.061 27.5 291.957 27.396C291.853 27.292 291.729 27.24 291.585 27.24C291.438 27.24 291.311 27.292 291.205 27.396C291.101 27.5 291.049 27.6253 291.049 27.772C291.049 27.9187 291.101 28.044 291.205 28.148C291.311 28.252 291.438 28.304 291.585 28.304Z" fill="white"/>
<path d="M275.384 216.6V215.016H273.8V214.184H275.384V212.6H276.216V214.184H277.8V215.016H276.216V216.6H275.384ZM279.109 217V212.232H278.441L278.669 211.4H279.941V217H279.109ZM281.338 217.104C281.215 217.104 281.111 217.061 281.026 216.976C280.943 216.891 280.902 216.787 280.902 216.664C280.902 216.544 280.943 216.441 281.026 216.356C281.111 216.271 281.215 216.228 281.338 216.228C281.461 216.228 281.565 216.271 281.65 216.356C281.735 216.441 281.778 216.544 281.778 216.664C281.778 216.787 281.735 216.891 281.65 216.976C281.565 217.061 281.461 217.104 281.338 217.104ZM284.434 217.104C284.079 217.104 283.758 217.019 283.47 216.848C283.184 216.675 282.958 216.445 282.79 216.16C282.624 215.872 282.542 215.557 282.542 215.216H283.374C283.374 215.411 283.422 215.588 283.518 215.748C283.614 215.908 283.742 216.036 283.902 216.132C284.062 216.225 284.239 216.272 284.434 216.272C284.626 216.272 284.802 216.225 284.962 216.132C285.122 216.036 285.25 215.908 285.346 215.748C285.442 215.588 285.49 215.411 285.49 215.216C285.49 215.021 285.446 214.844 285.358 214.684C285.27 214.521 285.138 214.392 284.962 214.296C284.786 214.197 284.562 214.148 284.29 214.148H282.878L283.446 211.4H286.154V212.232H284.122L283.902 213.316L284.386 213.324C284.767 213.332 285.102 213.42 285.39 213.588C285.68 213.753 285.908 213.977 286.074 214.26C286.239 214.54 286.322 214.859 286.322 215.216C286.322 215.475 286.272 215.719 286.174 215.948C286.075 216.175 285.939 216.375 285.766 216.548C285.595 216.721 285.395 216.857 285.166 216.956C284.939 217.055 284.695 217.104 284.434 217.104ZM287.561 217L290.793 211.4H291.753L288.521 217H287.561ZM288.237 213.748C288.034 213.748 287.847 213.699 287.677 213.6C287.509 213.499 287.374 213.364 287.273 213.196C287.171 213.025 287.121 212.837 287.121 212.632C287.121 212.419 287.171 212.228 287.273 212.06C287.377 211.892 287.513 211.76 287.681 211.664C287.851 211.565 288.037 211.516 288.237 211.516C288.442 211.516 288.629 211.567 288.797 211.668C288.965 211.767 289.099 211.9 289.201 212.068C289.302 212.236 289.353 212.424 289.353 212.632C289.353 212.843 289.301 213.032 289.197 213.2C289.095 213.368 288.959 213.501 288.789 213.6C288.621 213.699 288.437 213.748 288.237 213.748ZM288.237 213.16C288.386 213.16 288.511 213.109 288.613 213.008C288.714 212.904 288.765 212.779 288.765 212.632C288.765 212.483 288.714 212.357 288.613 212.256C288.511 212.152 288.386 212.1 288.237 212.1C288.09 212.1 287.965 212.152 287.861 212.256C287.759 212.357 287.709 212.483 287.709 212.632C287.709 212.779 287.759 212.904 287.861 213.008C287.965 213.109 288.09 213.16 288.237 213.16ZM291.085 216.892C290.877 216.892 290.687 216.84 290.517 216.736C290.349 216.629 290.214 216.492 290.113 216.324C290.014 216.153 289.965 215.969 289.965 215.772C289.965 215.564 290.017 215.376 290.121 215.208C290.225 215.037 290.361 214.903 290.529 214.804C290.699 214.703 290.885 214.652 291.085 214.652C291.295 214.652 291.485 214.704 291.653 214.808C291.821 214.912 291.954 215.049 292.053 215.22C292.151 215.391 292.201 215.575 292.201 215.772C292.201 215.977 292.15 216.165 292.049 216.336C291.95 216.504 291.815 216.639 291.645 216.74C291.477 216.841 291.29 216.892 291.085 216.892ZM291.085 216.304C291.229 216.304 291.353 216.252 291.457 216.148C291.561 216.044 291.613 215.919 291.613 215.772C291.613 215.625 291.561 215.5 291.457 215.396C291.353 215.292 291.229 215.24 291.085 215.24C290.938 215.24 290.811 215.292 290.705 215.396C290.601 215.5 290.549 215.625 290.549 215.772C290.549 215.919 290.601 216.044 290.705 216.148C290.811 216.252 290.938 216.304 291.085 216.304Z" fill="white"/>
</g>
<defs>
<clipPath id="clip0_4600_12341">
<rect width="325" height="240" fill="white"/>
</clipPath>
</defs>
</svg>
