<svg width="24" height="24" viewBox="0 0 24 24" fill="none" xmlns="http://www.w3.org/2000/svg">
<circle opacity="0.1" cx="12" cy="12" r="12" fill="#49D5DD"/>
<circle cx="12" cy="12" r="10.4198" fill="#020613"/>
<path d="M22.4197 12C22.4197 17.7547 17.7546 22.4198 12 22.4198C6.24528 22.4198 1.5802 17.7547 1.5802 12C1.5802 6.24533 6.24528 1.58025 12 1.58025C17.7546 1.58025 22.4197 6.24533 22.4197 12Z" fill="#49D5DD"/>
<g clip-path="url(#clip0_4627_6317)">
<path fill-rule="evenodd" clip-rule="evenodd" d="M7.51735 7.1875C7.29653 6.05 8.17981 5 9.32808 5C10.3438 5 11.183 5.83125 11.183 6.8375V9.1125C11.4479 9.1125 11.7129 9.06875 11.9779 9.06875C12.2429 9.06875 12.4637 9.06875 12.7287 9.1125V6.8375C12.7287 5.83125 13.5678 5 14.5836 5C15.7319 5 16.6151 6.05 16.4385 7.1875L15.9527 9.85625C17.6751 10.6 19 11.9125 19 13.5312V14.5375C19 15.8937 18.1167 17.0312 16.836 17.775C15.5552 18.5625 13.877 19 11.9779 19C10.0789 19 8.40063 18.5625 7.11987 17.775C5.88328 17.0312 5 15.8937 5 14.5375V13.5312C5 11.9125 6.28076 10.6 8.00315 9.85625L7.51735 7.1875ZM15.2902 10.2062L15.8644 7.05625C15.9968 6.26875 15.4227 5.525 14.5836 5.525C13.877 5.525 13.3028 6.09375 13.3028 6.79375V9.68125C13.1262 9.6375 12.9054 9.6375 12.7287 9.6375C12.4637 9.6375 12.2429 9.59375 11.9779 9.59375C11.7129 9.59375 11.4479 9.59375 11.183 9.6375C11.0063 9.6375 10.7855 9.68125 10.6088 9.68125V6.8375C10.6088 6.1375 10.0347 5.56875 9.32808 5.56875C8.53312 5.56875 7.91483 6.3125 8.09148 7.1L8.66562 10.25C6.81073 10.95 5.57413 12.175 5.57413 13.575V14.5813C5.57413 16.725 8.4448 18.475 11.9779 18.475C15.511 18.475 18.3817 16.725 18.3817 14.5813V13.575C18.4259 12.1313 17.1893 10.9062 15.2902 10.2062Z" fill="#633001"/>
<path d="M18.4259 14.5375C18.4259 16.6812 15.5552 18.4313 12.0221 18.4313C8.48895 18.4313 5.61829 16.6812 5.61829 14.5375V13.5312H18.47V14.5375H18.4259Z" fill="#FEDC90"/>
<path fill-rule="evenodd" clip-rule="evenodd" d="M8.09147 7.1C7.91482 6.3125 8.53311 5.56875 9.32807 5.56875C10.0347 5.56875 10.6088 6.1375 10.6088 6.8375V9.725C11.0505 9.68125 11.4921 9.6375 11.9779 9.6375C12.4195 9.6375 12.8612 9.68125 13.3028 9.725V6.8375C13.3028 6.1375 13.877 5.56875 14.5836 5.56875C15.3785 5.56875 15.9968 6.3125 15.8643 7.1L15.2902 10.25C17.1451 10.95 18.4259 12.175 18.4259 13.575C18.4259 15.7188 15.5552 17.4688 12.0221 17.4688C8.48895 17.4688 5.61829 15.7188 5.61829 13.575C5.61829 12.175 6.85488 10.95 8.70977 10.25L8.09147 7.1Z" fill="#D1884F"/>
<path d="M10.2113 13.2687C10.2113 13.8375 9.9022 14.3187 9.50472 14.3187C9.10724 14.3187 8.7981 13.8375 8.7981 13.2687C8.7981 12.7 9.10724 12.2188 9.50472 12.2188C9.9022 12.2188 10.2113 12.7 10.2113 13.2687Z" fill="#633001"/>
<path d="M15.1136 13.2687C15.1136 13.8375 14.8044 14.3187 14.4069 14.3187C14.0095 14.3187 13.7003 13.8375 13.7003 13.2687C13.7003 12.7 14.0095 12.2188 14.4069 12.2188C14.8044 12.2188 15.1136 12.7 15.1136 13.2687Z" fill="#633001"/>
</g>
<path fill-rule="evenodd" clip-rule="evenodd" d="M12 22.0247C17.5364 22.0247 22.0246 17.5365 22.0246 12C22.0246 6.46351 17.5364 1.97531 12 1.97531C6.46347 1.97531 1.97526 6.46351 1.97526 12C1.97526 17.5365 6.46347 22.0247 12 22.0247ZM12 22.4198C17.7546 22.4198 22.4197 17.7547 22.4197 12C22.4197 6.24533 17.7546 1.58025 12 1.58025C6.24528 1.58025 1.5802 6.24533 1.5802 12C1.5802 17.7547 6.24528 22.4198 12 22.4198Z" fill="#37A9B0"/>
<defs>
<clipPath id="clip0_4627_6317">
<rect width="14" height="14" fill="white" transform="translate(5 5)"/>
</clipPath>
</defs>
</svg>
