<svg width="24" height="24" viewBox="0 0 24 24" fill="none" xmlns="http://www.w3.org/2000/svg">
<circle opacity="0.1" cx="12" cy="12" r="12" fill="#F52AC8"/>
<circle cx="12" cy="12" r="10.4198" fill="#020613"/>
<circle cx="12" cy="12" r="10.4198" fill="#F52AC8" fill-opacity="0.3"/>
<path fill-rule="evenodd" clip-rule="evenodd" d="M12.0001 22.0247C17.5366 22.0247 22.0248 17.5365 22.0248 12C22.0248 6.46352 17.5366 1.97531 12.0001 1.97531C6.46359 1.97531 1.97538 6.46352 1.97538 12C1.97538 17.5365 6.46359 22.0247 12.0001 22.0247ZM12.0001 22.4198C17.7547 22.4198 22.4198 17.7547 22.4198 12C22.4198 6.24533 17.7547 1.58025 12.0001 1.58025C6.2454 1.58025 1.58032 6.24533 1.58032 12C1.58032 17.7547 6.2454 22.4198 12.0001 22.4198Z" fill="#F52AC8"/>
<path fill-rule="evenodd" clip-rule="evenodd" d="M6.53702 6.06151C7.88216 7.69573 8.91542 8.61394 9.411 9.05433C9.57993 9.20446 9.68639 9.29906 9.72143 9.34758C9.83512 9.50546 9.79206 9.64773 9.59739 9.75877C9.45896 9.82882 9.30827 9.87096 9.1538 9.88282C9.02718 9.88282 8.98325 9.83424 8.98325 9.83424C8.9744 9.82585 8.96601 9.81865 8.95744 9.81129L8.9574 9.81126C8.89511 9.7578 8.82311 9.696 8.49228 9.10815C8.17226 8.60653 7.84838 8.10742 7.52068 7.61086C7.51735 7.60772 7.51444 7.60496 7.51355 7.6055C7.50752 7.60919 7.59438 7.76478 8.27512 8.98416L8.43974 9.27904C8.56096 9.55977 8.50847 9.699 8.48188 9.76957C8.47502 9.78775 8.46989 9.80137 8.46989 9.81168C8.46989 9.91405 8.44146 9.96783 8.3157 10.1092C8.10553 10.3435 8.01165 10.6072 7.9436 11.1528C7.8678 11.7644 7.65419 12.1964 7.06158 12.9364C6.71532 13.3693 6.65847 13.4482 6.57061 13.6234C6.46036 13.8429 6.43021 13.9661 6.41815 14.2428C6.40523 14.5369 6.43021 14.726 6.51979 15.0062C6.59731 15.2526 6.68 15.414 6.88931 15.7384C7.07019 16.0186 7.17355 16.2268 7.17355 16.3083C7.17355 16.3725 7.18561 16.3725 7.46641 16.3092C8.13482 16.1583 8.67833 15.8928 8.98411 15.5658C9.17361 15.3636 9.21754 15.2526 9.21926 14.9759C9.22012 14.7954 9.21409 14.7573 9.16499 14.6532C9.08575 14.484 8.94104 14.3426 8.62234 14.124C8.20373 13.8377 8.02457 13.6078 7.97633 13.2912C7.93499 13.031 7.98236 12.8479 8.2132 12.363C8.45266 11.8598 8.51209 11.6456 8.55258 11.1398C8.57842 10.8128 8.61373 10.6835 8.70762 10.5794C8.80581 10.4718 8.89367 10.4354 9.13657 10.4024C9.53193 10.3478 9.78258 10.2463 9.98931 10.0555C10.0722 9.98657 10.139 9.90022 10.1852 9.8025C10.2313 9.70477 10.2556 9.59805 10.2563 9.48985L10.2649 9.30767L10.1642 9.19143C9.80153 8.76809 6.29412 5.7284 6.27172 5.7284C6.26741 5.7284 6.38628 5.87847 6.53702 6.06151ZM10.5139 10.4987C10.3287 10.5551 10.1487 10.752 10.0918 10.9585C10.0582 11.0843 10.078 11.3055 10.1288 11.3732C10.2115 11.4833 10.2908 11.512 10.507 11.5111C10.929 11.5085 11.296 11.3272 11.339 11.0999C11.3735 10.9143 11.2124 10.6575 10.9902 10.5438C10.8392 10.4821 10.6736 10.4664 10.5139 10.4987ZM9.84822 6.64011C9.68628 6.61496 9.67939 6.61235 9.75605 6.60108C9.90248 6.57852 10.247 6.60888 10.4848 6.66527C11.0395 6.79713 11.5442 7.13545 12.0834 7.73662L12.2264 7.89624L12.4314 7.86328C13.2945 7.72448 14.1713 7.83465 14.9061 8.17384C15.1085 8.26753 15.4272 8.45317 15.4659 8.50089C15.4797 8.5165 15.503 8.61366 15.5176 8.71863C15.5727 9.08124 15.546 9.35797 15.4349 9.5653C15.3746 9.67807 15.3712 9.71364 15.4117 9.8108C15.431 9.85081 15.4612 9.88455 15.4986 9.90817C15.5361 9.93179 15.5794 9.94434 15.6236 9.94439C15.8062 9.94439 16.0026 9.64945 16.093 9.23825L16.1292 9.0743L16.2007 9.15584C16.5943 9.60173 16.9027 10.209 16.9552 10.641L16.969 10.7538L16.9035 10.6514C16.8084 10.4946 16.6805 10.3605 16.5288 10.2584C16.2653 10.0841 15.9862 10.0242 15.2489 9.98516C14.5822 9.95047 14.2049 9.89321 13.8311 9.7709C13.1946 9.5627 12.8741 9.28683 12.1179 8.29442C11.7819 7.85287 11.5752 7.6091 11.3685 7.41305C10.8991 6.96629 10.4382 6.73207 9.84822 6.64098V6.64011ZM15.6174 7.62475C15.6337 7.3298 15.6734 7.13461 15.7543 6.95678C15.7721 6.91183 15.7943 6.86882 15.8207 6.82839C15.825 6.82839 15.8112 6.88044 15.7896 6.94377C15.7311 7.11726 15.7207 7.35322 15.7621 7.62822C15.8138 7.97695 15.8422 8.02726 16.21 8.40376C16.3831 8.58072 16.5838 8.8028 16.657 8.89909L16.7897 9.07259L16.657 8.94854C16.4951 8.79673 16.123 8.50005 16.0403 8.45754C15.9852 8.42978 15.9766 8.42978 15.943 8.46361C15.9111 8.49484 15.9051 8.54169 15.8999 8.76377C15.8939 9.10989 15.8465 9.33197 15.7328 9.55318C15.6716 9.67463 15.6622 9.64861 15.7173 9.51241C15.7586 9.41178 15.7629 9.36667 15.7629 9.03182C15.7629 8.35951 15.682 8.19729 15.2143 7.92143C15.0732 7.83937 14.9283 7.7641 14.7801 7.69588C14.7071 7.66632 14.6363 7.63153 14.5682 7.59178C14.5812 7.57877 15.0377 7.71236 15.2212 7.78263C15.4951 7.88846 15.5399 7.90148 15.5734 7.88933C15.595 7.88066 15.6062 7.8156 15.6165 7.62475H15.6174ZM10.1624 8.77591C9.83427 8.32308 9.63013 7.62822 9.67492 7.10859L9.68784 6.9481L9.76278 6.96111C9.90404 6.98714 10.1461 7.07736 10.2598 7.14676C10.5707 7.33587 10.706 7.58484 10.8429 8.22505C10.8834 8.41243 10.9359 8.6241 10.9601 8.69697C10.9988 8.81234 11.147 9.08213 11.2667 9.25737C11.3528 9.38402 11.296 9.44388 11.1048 9.42653C10.8128 9.40051 10.4174 9.12724 10.1624 8.77591ZM15.2177 12.1479C13.6811 11.5293 13.1401 10.9915 13.1401 10.085C13.1401 9.95136 13.1444 9.84206 13.1505 9.84206C13.1556 9.84206 13.2151 9.88543 13.2823 9.94008C13.5941 10.1899 13.9429 10.2966 14.9093 10.438C15.4778 10.5213 15.7965 10.5881 16.092 10.6861C17.0308 10.9976 17.6105 11.6291 17.7492 12.4905C17.7888 12.7404 17.7664 13.2088 17.7001 13.456C17.6484 13.6512 17.4917 14.0026 17.4503 14.0164C17.4383 14.0208 17.4271 13.9765 17.4245 13.9158C17.409 13.5931 17.2453 13.2782 16.9714 13.0422C16.6596 12.7742 16.241 12.5599 15.2177 12.1479ZM14.1393 12.4055C14.1212 12.2956 14.0965 12.187 14.0652 12.0802L14.0256 11.9631L14.0988 12.0455C14.1996 12.1583 14.2797 12.3031 14.3469 12.4966C14.3986 12.6441 14.4037 12.6874 14.4037 12.9269C14.4037 13.162 14.3968 13.2114 14.3486 13.3433C14.2824 13.5388 14.1715 13.7159 14.0247 13.8603C13.7439 14.1466 13.383 14.3044 12.8619 14.3704C12.7715 14.3816 12.5079 14.4007 12.2762 14.4129C11.6913 14.4432 11.3063 14.5066 10.9609 14.628C10.9296 14.6419 10.896 14.6498 10.8619 14.6514C10.8481 14.6376 11.0841 14.497 11.2779 14.4033C11.5518 14.2706 11.8248 14.1986 12.4364 14.0971C12.7379 14.0468 13.0505 13.9852 13.1298 13.9609C13.8774 13.7319 14.2625 13.1394 14.1393 12.4055ZM14.7047 12.3994C14.5928 12.795 14.6401 13.2192 14.8443 13.6581C14.9468 13.8785 15.0484 14.0459 15.4653 14.6705C15.8236 15.2092 16.0011 15.5276 16.0889 15.7887C16.1167 15.8719 16.1382 15.9535 16.1535 16.0338C16.4571 15.7323 16.8407 15.5112 17.2697 15.4051C17.2983 15.1638 17.3045 14.8303 17.2767 14.6705C17.213 14.3027 17.0812 13.9999 16.8684 13.7353C16.6255 13.4317 16.2672 13.1671 15.6402 12.8245C15.1371 12.5503 14.9494 12.4436 14.8546 12.3803C14.8081 12.3482 14.759 12.3222 14.7478 12.3222C14.7357 12.3222 14.7168 12.356 14.7047 12.3994ZM10.9983 15.099C10.3515 15.2049 9.64258 15.5467 9.0715 16.029L8.90182 16.1721L9.05169 16.1955C9.83035 16.317 10.0397 16.4254 10.5797 16.9824C10.8907 17.3025 10.9949 17.3736 11.2533 17.4395C11.6323 17.5367 12.0044 17.3589 12.1336 17.0205C12.1904 16.8696 12.1827 16.6198 12.1172 16.494C11.9613 16.1947 11.5065 16.0984 11.286 16.317C11.1034 16.4992 11.1568 16.7742 11.3842 16.8219C11.4368 16.8323 11.435 16.8306 11.3713 16.8019C11.2714 16.7559 11.2275 16.6935 11.2275 16.5937C11.2266 16.3604 11.4928 16.2294 11.7417 16.3413C11.9234 16.4246 11.9958 16.5313 11.9958 16.7195C11.9963 16.7873 11.9823 16.8544 11.9548 16.9163C11.9272 16.9782 11.8868 17.0334 11.8363 17.0782C11.7857 17.1229 11.7261 17.1562 11.6617 17.1757C11.5972 17.1953 11.5293 17.2006 11.4626 17.1914C11.2947 17.1647 11.1399 17.0837 11.0216 16.9607C10.7684 16.6744 10.8666 16.2233 11.2197 16.0498C11.4885 15.918 11.8459 15.95 12.1233 16.1322C12.4411 16.3413 12.5763 16.5313 12.8502 17.1567C12.9247 17.3319 13.0098 17.5023 13.1052 17.6668C13.3653 18.0555 13.6763 18.2463 14.051 18.2463C14.2454 18.2495 14.4374 18.2029 14.6091 18.111C14.7538 18.0381 14.9597 17.9002 14.945 17.8854C14.8989 17.8933 14.854 17.9073 14.8115 17.9271C14.4024 18.0867 13.9855 18.0754 13.7443 17.8984C13.5927 17.7874 13.4696 17.5653 13.4067 17.2877C13.3963 17.24 13.3602 17.0275 13.3274 16.8167C13.243 16.2806 13.1621 16.0403 12.9743 15.7635C12.7822 15.4816 12.4118 15.2439 11.9984 15.1381C11.6695 15.0692 11.3315 15.056 10.9983 15.099Z" fill="#F52AC8"/>
</svg>
